<svg xmlns="http://www.w3.org/2000/svg" viewBox="0 0 111.6 118.4"><path fill="none" d="M51.1 43c-3.8-9.2-3.5-18.7-3.1-22.8-8.7-5-16.3-8.3-22.4-10.5-6-2.2-11.1-3.5-14.9-4.2 7.5 5.8 19.4 16.6 30.8 34.2h.6c.4 0 4.2 1 9.1 3.3Zm3.5 6.5c-3.8-2.4-7.4-3.9-10-4.8 5.6 9.4 11 20.5 15.5 33.6.4 1-.2 2.2-1.2 2.5-.2 0-.4.1-.6.1-.8 0-1.6-.5-1.9-1.4C52 66.6 46.6 55.6 41 46.3c-3.4 5.9-9.1 18.4-4.7 30.6C43 95.3 61.4 109 67.6 113.2c2.3-6.9 8-28.2.8-47.9-.8-2.1-1.7-4-2.9-5.7-2-1.3-3.9-2.8-5.8-4.4-2-1.8-3.7-3.7-5.1-5.8ZM85 26.7c-9.6-8.5-23.2-8-30-7 9 5.6 18.7 12.9 29 22.2.8.7.9 2 .1 2.8-.4.4-.9.6-1.5.6s-1-.2-1.3-.5C70.8 35.2 60.9 28 51.9 22.5c-.2 5.3.2 15.5 5.6 23.9 1.3 2.1 2.9 4 4.9 5.8 1.9 1.7 3.9 3.2 6 4.5 14.3 9.2 32.4 11.7 38.9 12.4-1.3-7.2-6.5-28.6-22.2-42.5Z"/><path fill="none" d="M42 39.7c.4 0 4.2 1 9.1 3.3-3.8-9.2-3.5-18.7-3.1-22.8-8.7-5-16.3-8.3-22.4-10.5-6-2.2-11.1-3.5-14.9-4.2 7.5 5.8 19.4 16.6 30.8 34.2h.6Z"/><path d="M111.6 71.1c-.1-1.2-3.8-29.6-23.9-47.4C73.4 11 52.3 16 49.9 16.6 24.7 2.2 6.7.6 3.2.4 3.1.4 3 .3 2.9.2 2-.3.8 0 .2 1-.3 2 0 3.2 1 3.7c.3.1 19.7 11.2 37.5 38.8C35 48 26.9 63 32.4 78.3c8.5 23.6 34 39.1 35.1 39.8.3.2.7.3 1 .3s.4 0 .6-.1c.6-.2 1-.6 1.2-1.2.4-1.1 10.8-27.8 1.7-53.1 0-.2-.2-.4-.2-.6 17.3 8.9 36.7 9.8 37.7 9.9.6 0 1.1-.2 1.5-.6.4-.4.6-1 .5-1.6Zm-43.3-5.7c7.1 19.7 1.4 41-.8 47.9-6.2-4.2-24.7-17.9-31.3-36.3-4.4-12.2 1.3-24.7 4.7-30.6 5.6 9.3 11 20.3 15.4 33.2.3.8 1.1 1.4 1.9 1.4s.4 0 .6-.1c1-.4 1.6-1.5 1.2-2.5-4.5-13.1-9.9-24.2-15.5-33.6 2.6.9 6.2 2.4 10 4.8 1.4 2 3.1 4 5.1 5.8 1.8 1.6 3.8 3.1 5.8 4.4 1.1 1.7 2.1 3.6 2.9 5.7Zm-6-13.2c-2-1.7-3.6-3.7-4.9-5.8-5.3-8.4-5.8-18.6-5.6-23.9 9 5.5 18.9 12.8 29.4 22.3.4.4.9.5 1.3.5s1.1-.2 1.5-.6c.7-.8.7-2.1-.1-2.8-10.2-9.4-20-16.6-29-22.2 6.8-1 20.4-1.6 30 7 15.7 13.9 20.9 35.3 22.2 42.5-6.5-.6-24.6-3.1-38.9-12.4-2.1-1.4-4.1-2.9-6-4.5ZM10.6 5.5c3.8.8 8.9 2 14.9 4.2s13.7 5.5 22.4 10.5c-.4 4-.6 13.5 3.1 22.8-4.9-2.3-8.7-3.2-9.1-3.3h-.6C30.1 22.1 18.2 11.2 10.6 5.5Z"/></svg>