<svg xmlns="http://www.w3.org/2000/svg" viewBox="0 0 960 407"><path fill="none" d="M489.8 101.8c-.7-.5-1.5-.8-2.4-.8-1.2 0-2.5.6-3.3 1.7-.6.9-.9 1.9-.7 3 .2 1.1.7 2 1.6 2.6 1.8 1.3 4.3.9 5.6-.9.6-.9.9-1.9.7-3-.2-1.1-.7-2-1.6-2.6Zm-295.1 68.8c0-1.7.4-3.7 1.5-5.9-.5-1-1.1-2.1-1.8-3.2-3.3-4.9-10.6-8.5-14.5-10.2 0 4.3.5 12.4 3.8 17.3 2.1 3.1 4.3 5.2 6.4 5.9.2-.4.5-.9.8-1.3 1-1.3 2.3-2.2 3.7-2.7ZM184.5 189c3.4-1 6-2.4 7.4-4-1.5-1.4-2.4-3.2-2.7-5.3v-1.2c-.1 0-.3 0-.4-.1-1.4-.5-2.8-1.4-4.1-2.5-1.1.1-2.3.4-3.6.7-3.6 1-7.2 3.7-10.1 6.4v.6c0 .6-.3 1.1-.7 1.5-.4.3-.8.4-1.2.4h-.4c-.6.6-1.2 1.3-1.6 1.8 4.1 1.3 12 3.3 17.6 1.8Zm150.3-42.3c1.2-1 2.7-1.7 4.2-1.9v-.3c.4-1.7 1.3-3.5 2.6-5.2-.3-1.1-.6-2.3-1.1-3.5-2.2-5.5-8.7-10.5-12.2-12.9-.8 4.2-2 12.3.3 17.7 1 2.4 2.7 5.7 5.2 7.1.3-.4.7-.7 1.1-1.1Zm-130.3 26.6c1.5-.5 3.4-.7 5.8-.4.7-.7 1.5-1.5 2.2-2.4 3.7-4.6 4.9-12.7 5.2-16.9-4 1.3-11.6 4.3-15.3 9-1.5 1.9-3.4 4.9-3.6 7.6 1.5.2 3.1.8 4.4 1.8.5.4 1 .9 1.4 1.4Zm515.9-50.7c-.4-.1-.7-.2-1.1-.2-1.3 0-2.6.8-3.1 2.2-.6 1.7.3 3.6 2 4.2.8.3 1.7.3 2.5-.1s1.4-1 1.7-1.9c.3-.8.3-1.7-.1-2.5s-1-1.4-1.9-1.7Z"/><path fill="none" d="M496.8 93.4c-1 .2-2-.5-2.3-1.5-.6-2.8-3.1-4.9-6-5.1-2.9-.2-5.5 1.5-6.6 4.2-.4 1-1.4 1.5-2.4 1.2-2.8-.8-5.7.2-7.3 2.6-1.6 2.4-1.4 5.6.4 7.8.7.8.6 2-.2 2.7-2.1 2-2.6 5.1-1.4 7.7 1.3 2.6 4 4 6.9 3.6h.3c.9 0 1.7.6 1.9 1.5.7 2.7 3.1 4.7 5.9 4.9 2.8.2 5.4-1.4 6.5-4 .4-1 1.5-1.5 2.5-1.1 2.8.9 5.8-.2 7.4-2.6 1.6-2.4 1.4-5.6-.4-7.8-.7-.8-.6-2 .2-2.7 2.1-2 2.6-5.1 1.4-7.7-1.3-2.6-4-4-6.9-3.6Zm-2.8 16.3c-1.3 1.7-3.1 2.9-5.2 3.2-.4 0-.9.1-1.3.1-1.7 0-3.3-.5-4.7-1.5-3.6-2.6-4.4-7.6-1.8-11.2 1.3-1.7 3.1-2.9 5.2-3.2 2.1-.3 4.2.2 6 1.4 3.6 2.6 4.4 7.6 1.8 11.2Zm238.1 14.6c-.9-.6-1.1-1.8-.6-2.7 1.2-2.1 1-4.7-.7-6.5-1.6-1.8-4.2-2.3-6.4-1.3-1 .4-2.1 0-2.6-.8-1.2-2.1-3.6-3.2-6-2.7s-4.1 2.5-4.3 4.9c0 1-1 1.8-2 1.8-2.4 0-4.5 1.5-5.2 3.8-.7 2.3.1 4.9 2.1 6.2.9.6 1.1 1.8.6 2.7-1.2 2.1-1 4.7.7 6.5 1.6 1.8 4.2 2.3 6.4 1.3.3-.1.5-.2.8-.2.7 0 1.4.4 1.7 1 1.2 2.1 3.6 3.1 5.9 2.6 2.3-.5 4.1-2.4 4.3-4.8.1-1 1-1.8 2-1.8 2.5 0 4.7-1.5 5.4-3.8.7-2.3-.1-4.9-2.1-6.2Zm-6 3.8c-.7 1.8-2 3.3-3.8 4.1-1 .5-2 .7-3.1.7s-1.7-.1-2.5-.4c-3.8-1.4-5.7-5.6-4.4-9.3 1.4-3.8 5.6-5.7 9.3-4.4 3.8 1.4 5.7 5.6 4.4 9.3Zm-389.7 32.8c-1.1 1-2.6 1.9-4.6 2.6-.5 1.2-1 2.5-1.4 4.1-1.4 5.7.9 13.6 2.3 17.6 3.1-2.9 8.8-8.8 10.2-14.5.6-2.6 1.2-6.5-.2-9.2-.8.2-1.6.3-2.4.3-1.4 0-2.7-.3-4-1ZM31.7 335c-5.8 2-11.8 4.5-18 7.5 3.8-.4 8.1-.4 13 .4 1.6-1.7 3.3-3 5-4.1-.1-1.3-.1-2.6 0-3.8Zm300.1-182.4c0-.4.1-.8.2-1.2-1.3-.7-2.6-1.8-3.9-3.5-1.1 0-2.4-.1-3.7 0-5.9.4-12.6 5-16 7.6 3.7 2.1 11 5.6 16.9 5.2 2.4-.2 5.9-.7 8.1-2.5-1.2-1.7-1.7-3.7-1.6-5.7Zm14.4 7c.8 1.4 1.3 3.3 1.4 5.6.7.6 1.6 1.2 2.5 1.8 5 3.1 13.2 3.4 17.4 3.3-1.8-3.9-5.6-11.1-10.6-14.2-2.1-1.3-5.1-2.8-7.9-2.8 0 2.3-.9 4.6-2.7 6.3Zm18.7-27c-4.2.5-12.3 1.9-16.8 5.7-2.7 2.3-4.5 4.6-5.1 6.8 1.5.5 2.8 1.4 3.9 2.6.4.5.8 1.1 1.1 1.6 1.6-.2 3.5 0 5.8.8.9-.5 1.7-1.2 2.6-1.9 4.5-3.8 7.3-11.5 8.5-15.6Zm-167.1 54.7c-.8 0-1.6-.1-2.3-.3 0 0 0 .1-.1.2-1 1.2-2.3 2.3-3.9 3.3-.3 1.3-.5 2.7-.6 4.3-.2 5.9 3.5 13.1 5.7 16.8 2.5-3.5 6.9-10.3 7.1-16.2.2-3.8-.4-6.7-1.7-8.6 0-.1-.2-.2-.3-.4-.9.5-1.9.8-3 .9h-1Zm7-3.6c.2.2.4.5.5.7.9 1.3 1.5 2.8 1.9 4.5.8.4 1.8.8 2.8 1.2 5.5 2.1 13.6.7 17.7-.3-2.5-3.4-7.7-9.7-13.2-11.8-2.3-.8-5.6-1.7-8.3-1.1 0 .2 0 .5.1.7.2 2.1-.3 4.3-1.6 6Zm-64-102.4c-2-6.9-.8-14.5 3.4-21.7-9.9 3.9-21.6 8.4-33.6 12.5 11.2 8.2 20.2 17 27.6 25.9 4.5-1 9.2-2.1 13.9-3.4-.2 0-.4-.1-.5-.2-4.9-2.1-9-7.1-10.7-13.1ZM796 33.5c.3-5.3 1.8-10 4.1-13.6-1.3-.8-2.7-1.7-4.1-2.4-13-7.2-23.8-8.6-29.5-8.7 4.8 5.1 9.4 11.8 13.2 20.6l1.8-.3c4.7-.5 9.7 1.1 14.5 4.5ZM440.7 46.3c.1-3.1-.3-5.5-1.4-7-1 .5-2.1.7-3.2.7s-1.2 0-1.8-.3c-.8 1.1-1.9 2-3.2 2.8-.2 1-.4 2.2-.4 3.4-.1 2.7.8 5.6 1.9 8.3 1.8.4 3.5.8 5.2 1.2 1.6-2.8 3-6.1 3.1-9.1Zm-7.5-20.9c0-1.4.4-3 1.2-4.8-.4-.8-.9-1.6-1.4-2.5-2.6-3.9-8.3-6.8-11.6-8.3 0 3.6.5 10 3.1 13.9 1.1 1.7 2.9 4 5.1 4.8l.6-.9c.8-1 1.9-1.8 3-2.3Zm-118 29.8h.5c-.8-1.4-1.5-2.8-1.9-4.4-.2-.8-.3-1.6-.5-2.3-2.1 1.2-3.9 2.4-5.5 3.4 1 .4 2 .8 3.1 1.2 1.5.6 2.9 1.4 4.3 2.1ZM209.8 70.3c-1 1.9-1.9 3.7-2.6 5.2 2-.7 4-1.3 5.9-1.9-.6-.4-1.1-.9-1.6-1.4-.6-.6-1.2-1.3-1.7-1.9Zm232-42.8c1.3-.4 2.8-.5 4.7-.3.6-.6 1.1-1.2 1.7-1.9 2.9-3.7 3.9-10 4.3-13.6-3.5 1.2-9.4 3.6-12.3 7.3-1.2 1.5-2.7 3.8-3 6 1.3.2 2.5.7 3.5 1.5.4.3.7.7 1.1 1Zm.5 9.1c.1.1.2.3.3.4.7 1.1 1.3 2.3 1.6 3.8.7.3 1.4.7 2.2 1 4.4 1.6 10.7.7 14.3-.1-2.2-2.9-6.3-7.8-10.7-9.4-1.8-.7-4.4-1.4-6.5-1 .3 1.8 0 3.7-1.2 5.4Zm-13.8-4.2c-1.1-.4-2.3-1-3.6-2.1-.9.1-1.8.3-2.9.6-4.5 1.3-9 5.8-11.5 8.5 3.5 1.1 9.7 2.6 14.2 1.3 2.7-.7 4.7-1.8 5.9-3.1-1.4-1.4-2.1-3.3-2.2-5.2Zm192.4 14.9c.4 4.4-1.7 8.8-5.6 11.2-1.1.7-2.2 1.1-3.3 1.4 2.3 3.1 3.5 7.2 3.6 12 6.6-4.4 13.9-9.7 21.7-15.8-4-1.7-7.6-4.3-10.2-7.6-1.1-1.4-1.9-2.8-2.5-4.3-1 1.2-2.3 2.3-3.8 3Z"/><path fill="none" d="M206.2 177c0 .2 0 .5.1.7.2 2.1-.3 4.3-1.6 6 .2.2.4.5.5.7.9 1.3 1.5 2.8 1.9 4.5.8.4 1.8.8 2.8 1.2 5.5 2.1 13.6.7 17.7-.3-2.5-3.4-7.7-9.7-13.2-11.8-2.3-.8-5.6-1.7-8.3-1.1Zm-3.1-5.1c.5.4 1 .9 1.4 1.4 1.5-.5 3.4-.7 5.8-.4.7-.7 1.5-1.5 2.2-2.4 3.7-4.6 4.9-12.7 5.2-16.9-4 1.3-11.6 4.3-15.3 9-1.5 1.9-3.4 4.9-3.6 7.6 1.5.2 3.1.8 4.4 1.8Zm-13 2.7c.2-.4.5-.9.8-1.3 1-1.3 2.3-2.2 3.7-2.7 0-1.7.4-3.7 1.5-5.9-.5-1-1.1-2.1-1.8-3.2-3.3-4.9-10.6-8.5-14.5-10.2 0 4.3.5 12.4 3.8 17.3 2.1 3.1 4.3 5.2 6.4 5.9Zm-19.2 8.9c0 .6-.3 1.1-.7 1.5-.4.3-.8.4-1.2.4h-.4c-.6.6-1.2 1.3-1.6 1.8 4.1 1.3 12 3.3 17.6 1.8 3.4-1 6-2.4 7.4-4-1.5-1.4-2.4-3.2-2.7-5.3v-1.2c-.1 0-.3 0-.4-.1-1.4-.5-2.8-1.4-4.1-2.5-1.1.1-2.3.4-3.6.7-3.6 1-7.2 3.7-10.1 6.4v.6ZM140.8 81.3c-2-6.9-.8-14.5 3.4-21.7-9.9 3.9-21.6 8.4-33.6 12.5 11.2 8.2 20.2 17 27.6 25.9 4.5-1 9.2-2.1 13.9-3.4-.2 0-.4-.1-.5-.2-4.9-2.1-9-7.1-10.7-13.1ZM-6.8 40.1c3.7-1 7.7-1.9 12-2.9h.1C10.9 36 17 34.9 23.6 34c2-1.4 12.2-8.9 19.8-21.1.6-.9 1.8-1.2 2.8-.6.9.6 1.2 1.8.6 2.8-5.1 8.2-11.2 14.2-15.6 18 9.6-1 20.1-1.6 31.5-1.6.2-.3.5-.5.8-.6.1 0 6.3-2.6 14.4-10.2.8-.8 2.1-.7 2.8 0 .8.8.7 2.1 0 2.8-4 3.8-7.5 6.4-10.3 8.1 8.9.2 18.3.9 28.3 2 1.1.1 1.9 1.1 1.8 2.2-.1 1.1-1.1 1.9-2.2 1.8-16.7-1.9-32-2.4-45.8-2 5.7 3.5 14.5 9.5 18.1 16 .2.4.3.9.2 1.3 10.6 2.3 21.4 6.9 31.7 13.6 1.4.9 2.7 1.8 4 2.7 15.2-5.2 30-10.9 41.4-15.5 4.2-6.3 7.9-11.7 11-16.4C142.8 22.5 107.3-3.6 55.7-5.3h-2.8c-19.2 0-36.5 6.5-47.7 18.1-7.7 8-11.9 17.6-12 27.3Zm280.2 67.6c-.3.2-.7.3-1.1.3-.6 0-1.3-.3-1.7-.9-8.1-11.9-18.4-20.2-26.6-25.6-.7.6-1.4 1.2-1.9 1.7-2.1 2-3.2 4.9-3.1 8.1.2 5.6 3.9 11.8 10.4 17.4 21.1 18 31.3 26 35.7 29.3.6-8.8.8-33.1-14-52.8-4.2-5.5-8.7-8.5-13.6-8.9h-1.1c-3.3 0-6.3 1.2-9 2.8 8.3 5.7 18.5 14.1 26.5 25.9.6.9.4 2.2-.5 2.8Z"/><path fill="none" d="M154.6 51.1c-.7 1-1.3 2-2 3-.6 1-1.3 1.9-2 2.9s-1.3 2-2 3c-5.7 8.5-5.3 15.6-4 20.1 1.4 4.9 4.7 8.9 8.5 10.6 1.4.6 2.7 1.1 4 1.4 5.5-7 10.5-20.7 16.3-44 .3-1.1 1.4-1.7 2.4-1.5 1.1.3 1.7 1.4 1.5 2.4-4.6 18.7-8.8 31.2-13.1 39.4 4-3.1 8.9-4.6 14.8-4.5 1.3-2 2.5-4.2 3.7-6.8 9.3-21.4-1.5-49.9-5.6-59.2-2.1 3-6 8.8-12.7 18.9-.4.6-.8 1.1-1.1 1.7-.4.6-.8 1.1-1.2 1.7-2.2 3.2-4.6 6.8-7.3 10.9Zm-88.4 1.1c-5.7-8.1-20.5-15.8-20.6-15.8-.2 0-.3-.2-.4-.3C33 36.8 22 38.2 12.5 40c5.9 2.8 14.9 7.9 21.9 15.3 2.4-1 5-1.8 7.6-2.4 7.6-1.8 15.8-1.9 24.2-.6Zm135.5 134.1c-.9.5-1.9.8-3 .9h-1c-.8 0-1.6-.1-2.3-.3 0 0 0 .1-.1.2-1 1.2-2.3 2.3-3.9 3.3-.3 1.3-.5 2.7-.6 4.3-.2 5.9 3.5 13.1 5.7 16.8 2.5-3.5 6.9-10.3 7.1-16.2.2-3.8-.4-6.7-1.7-8.6 0-.1-.2-.2-.3-.4Zm-3.7-3.1h.3c1.2-.1 2.3-.7 3.1-1.7 0 0 .1-.2.2-.3.4-.6.6-1.2.7-1.8.2-1.5-.2-3-1.3-4.1l-.3-.3c-.3-.2-.6-.4-1-.6-.6-.3-1.2-.4-1.9-.4s-1.5.2-2.1.5c-.3.1-.6.3-.8.5-.2.2-.5.4-.7.7-.7.9-1 1.9-1 3v.4c0 .7.3 1.3.7 1.9.3.4.6.8 1 1.2.6.5 1.4.8 2.2.9h.9ZM352.8 74.3c.6.4 1.2.7 1.8 1 .6.3 1.2.6 1.9.8 1.6.5 3.3.8 5 .8s3.3-.3 4.8-.8c1.4-.4 2.6-1.1 3.8-1.8 1.9-1.2 3.4-2.9 4.6-4.8.4-.6.7-1.2 1-1.9.3-.6.5-1.2.7-1.8v-.1c.2-.6.3-1.3.4-2 .1-.8.2-1.5.2-2.3 0-4.9-2.3-9.3-5.9-12.1-.6-.5-1.2-.9-1.9-1.3s-1.5-.8-2.2-1.1c-1.7-.7-3.6-1-5.5-1-6.8 0-12.6 4.5-14.7 10.6-.1.4-.3.9-.4 1.4 0 .3-.1.7-.2 1-.1.7-.2 1.5-.2 2.2v.8c.2 5.1 2.8 9.7 6.8 12.4ZM14.1 72.2c3.8-6.4 9.5-11.6 16.4-15.2-9.5-9.3-22.3-14.7-25-15.7-4.4.9-8.5 1.9-12.1 2.9C-5.4 54.2.3 63.9 9.3 71c1.3 1 2.6 1.9 3.9 2.8.3-.5.5-1 .8-1.5Z"/><path fill="none" d="M342.5 57.3c1.9-8.7 9.7-15.3 19-15.3s6.9 1 9.8 2.6c11.7-6.9 19.3-13.3 22.6-16.3-5.6-2.6-20-8.3-37-8.3s-13.7.9-20.8 3.2c-3.2 1-5.8 2.2-8.1 3.4-.8.4-1.5.8-2.1 1.2-.9.6-1.8 1.2-2.5 1.8-2 1.6-3.5 3.4-4.5 5.2-.5.9-.9 1.8-1.2 2.7-.2.7-.4 1.5-.6 2.2-.1.7-.2 1.5-.2 2.3 9.6-5.1 22.4-10.4 37.8-11.5 1.1 0 2.1.7 2.1 1.8s-.7 2.1-1.8 2.1c-15.5 1.1-28.5 6.8-37.8 11.9.2 1.2.4 2.3.7 3.5.5 2.1 1.6 4 3.2 5.5 1 .9 2.1 1.8 3.4 2.4 4.7 2.4 11 2.6 18 .5 0-.3.1-.6.2-.9Zm-38.4-31.2c0 5.4 4.4 9.9 9.8 9.9 1.6-4.6 4.9-8.5 9.9-11.6-.8-4.7-4.9-8.2-9.8-8.2s-9.9 4.5-9.9 9.9Zm131.7 9.8c1.1 0 2.2-.4 3-1.3.1-.2.2-.3.3-.5.1-.2.2-.4.3-.7.4-1.4 0-2.9-1.2-3.8-.1-.1-.3-.2-.4-.3-.5-.3-1.2-.5-1.8-.5h-.4c-.6 0-1.1.3-1.5.6-.3.2-.6.4-.8.7-.6.8-.8 1.7-.7 2.6 0 .4.2.8.4 1.2.2.4.5.8 1 1.2.6.5 1.3.7 2 .8Zm32.3 27.8c-4.7 0-13.5-.6-28.5-3.8-1.3-.3-2.7-.6-4.2-.9-.2 0-.4 0-.6-.1-1.6-.4-3.4-.8-5.1-1.2-2.9-.7-6-1.5-9.3-2.4-2.6-.7-5-1-7.1-1-5.2 0-8.9 1.8-11.3 3.7-3.7 2.9-6.2 7.3-6.2 11.3s.1 3 .3 4.4c11.3 2.5 27.6 3.1 44.2-2.8 1-.4 2.2.2 2.6 1.2.4 1-.2 2.2-1.2 2.6-10.5 3.7-20.5 4.8-28.5 4.8s-5.5-.1-7.9-.3c-2.4-.2-4.7-.5-7-.9h-.1c1.4 2.3 2.7 4.6 3.9 6.8 3.8 2.9 9.3 4.5 16.7 4.8 27.2 1 43.8-18.1 49.4-25.9Zm-42.4 96.5c-.3.2-.7.3-1 .3-.7 0-1.4-.4-1.7-1-7.1-12.1-15.6-19.9-24.7-25.4-3.7 1.7-7.2 4.9-10.3 9.6-1.6 2.4-2 5.6-1 9.1 2.1 7.3 9.4 14.4 19.6 18.9 27 12 39.3 19.3 44.8 23.2-1.9-11.9-8.7-42.1-28.7-55.8-6.4-4.3-12.1-6.5-17.2-6.5s-1.4 0-2.1.1c8.5 5.6 16.4 13.5 23 24.8.6 1 .2 2.2-.7 2.7Zm-184-98.4c16.8-23.2 26-33.9 30.3-38.6-1.7 0-3.7-.2-6.1-.2-13.1 0-35.5 2.1-49 15-6.2 6-9.4 11.8-9.3 17.3 0 2.5.7 4.9 2 7.4 6.1-9.8 16.3-21.5 35-29.6 1-.4 2.2 0 2.6 1 .4 1 0 2.2-1 2.6-18.8 8.1-28.5 20.1-34.2 29.7.7 1 1.5 1.9 2.5 2.9 1 1.1 2.3 2 3.8 2.6 1.9.8 4.1 1.2 6.4 1.1 4.6-.3 9.2-2.7 13.4-6.8 1.3-1.3 2.6-2.8 3.8-4.4Zm-31.9 8.5c-1 1.9-1.9 3.7-2.6 5.2 2-.7 4-1.3 5.9-1.9-.6-.4-1.1-.9-1.6-1.4-.6-.6-1.2-1.3-1.7-1.9Zm184 8.4c-.4-.6-.7-1.1-1.1-1.7 0 0-.1-.2-.2-.2v-.1c-3.5-4.6-8-6.9-11.9-8-.3 0-.6-.2-.9-.2-.3.9-.7 1.7-1.2 2.5-1.4 2.5-3.3 4.6-5.6 6.3 4.7 5 9.9 10.8 15.6 17.4.7.8.6 2.1-.2 2.8-.4.3-.8.5-1.3.5s-1.1-.2-1.5-.7c-6-6.9-11.3-12.9-16.1-18-2.4 1.1-5.1 1.7-7.9 1.7s-3.7-.3-5.5-.8c0 6.2 2.3 15.3 9.5 21.9 13.2 12.2 38.9 13.9 47.6 14.1-2.1-4.9-7.1-15.9-14.2-28.7-1.6-2.9-3.3-5.8-5.1-8.8Zm-79.5 17.5c-1.7-2-4.2-3.2-7-3.2s-1.3 0-2 .2c-1 .2-1.9.6-2.8 1.1-.7.4-1.3.9-1.8 1.5-1.6 1.6-2.6 3.9-2.6 6.3 0 5 4.1 9.1 9.1 9.1s9.1-4.1 9.1-9.1V101c0-.8-.3-1.5-.6-2.3-.4-1-.9-1.8-1.5-2.6Z"/><path fill="none" d="M314.2 59.2c-1.5-.9-3.2-1.7-4.9-2.4-1.3-.5-2.5-1-3.7-1.5-11.7-4.3-18.5-2.8-23.3 1.9l-.8.8c3.3 0 7.3.4 12.4 2 6.7 2.1 15.1 6.4 25.8 15 .9.7 1 2 .3 2.8-.4.5-1 .7-1.6.7s-.9-.1-1.3-.4c-19.9-16.2-31.3-16.2-38.1-16.2h-.4c-.3.4-.5.8-.7 1.2-1.2 2.1-1.2 5.1 0 8.4 2.1 6 8.5 14.2 20.2 18.8.7.3 1.4.5 2.1.8 2.1-1.4 4.6-2.2 7.3-2.2 5.8 0 10.7 3.7 12.4 8.9 10.7 3.2 20 5.4 24.6 6.5-1.9-8.4-9-33.2-30.2-45.2Zm-270.8 108h-.8c-.8 0-1.6.2-2.3.7-.9.6-1.5 1.6-1.7 2.6-.2 1.1 0 2.2.6 3.1s1.6 1.5 2.6 1.7c1.1.2 2.2 0 3.1-.6.3-.2.6-.5.8-.8.4-.5.8-1.2.9-1.9.1-.7 0-1.4-.2-2.1-.5-1.4-1.6-2.4-3.1-2.7Zm297-5.3c-1.4 0-2.7-.3-4-1-1.1 1-2.6 1.9-4.6 2.6-.5 1.2-1 2.5-1.4 4.1-1.4 5.7.9 13.6 2.3 17.6 3.1-2.9 8.8-8.8 10.2-14.5.6-2.6 1.2-6.5-.2-9.2-.8.2-1.6.3-2.4.3Zm16.5-5.8c-2.1-1.3-5.1-2.8-7.9-2.8 0 2.3-.9 4.6-2.7 6.3.8 1.4 1.3 3.3 1.4 5.6.7.6 1.6 1.2 2.5 1.8 5 3.1 13.2 3.4 17.4 3.3-1.8-3.9-5.6-11.1-10.6-14.2Zm-265.1-23c-.4 0-.8-.1-1.3-.1-1.4 0-2.7.4-3.8 1a7.52 7.52 0 0 0-3.7 6.5c0 4.1 3.4 7.5 7.5 7.5s7.5-3.4 7.5-7.5-2.7-6.8-6.2-7.4Zm98.9-42.7c-2.8-.9-5.4-1.6-7.9-2-.7-.1-1.3-.2-1.9-.2-.8 0-1.7-.1-2.4-.1-1 0-1.9 0-2.8.1-4.3.5-7.8 2.1-10.7 5.1l-.9.9c.8 0 1.6.1 2.4.2.7 0 1.3.2 2 .3 1.2.2 2.5.4 3.8.8 6.6 1.6 14.4 4.8 26.7 11.3 1 .5 1.4 1.7.8 2.7-.4.7-1.1 1.1-1.8 1.1s-.6 0-.9-.2c-18.6-9.8-26.4-11.9-35.7-12.3-1 1.8-1.9 3.9-2.7 6.2-1.3 3.8-.6 8.1 1.7 12 3.6 5.8 10.6 9.7 19.9 11 31.9 4.6 47.1 8 53.6 9.8-4.8-10.4-19.7-38.7-43.1-46.6Zm141.1 62.2c0-.4.1-.8.2-1.2-1.3-.7-2.6-1.8-3.9-3.5-1.1 0-2.4-.1-3.7 0-5.9.4-12.6 5-16 7.6 3.7 2.1 11 5.6 16.9 5.2 2.4-.2 5.9-.7 8.1-2.5-1.2-1.7-1.7-3.7-1.6-5.7Z"/><circle cx="245.5" cy="205.5" r="4.5" fill="none"/><path fill="none" d="M262.5 149c-8.5 0-15.5 7-15.5 15.5s7 15.5 15.5 15.5 15.5-7 15.5-15.5-7-15.5-15.5-15.5Z"/><circle cx="58.5" cy="289.5" r="4.5" fill="none"/><path fill="none" d="M89.5 183.4c1.8.3 3.6-.9 4-2.7.3-1.8-.9-3.6-2.7-4h-.6c-.9 0-1.7.3-2.3.9-.5.5-.9 1.1-1 1.8-.1.7 0 1.4.3 2.1 0 .2.1.3.2.4.5.7 1.3 1.2 2.2 1.4ZM347 147.8c.4.5.8 1.1 1.1 1.6 1.6-.2 3.5 0 5.8.8.9-.5 1.7-1.2 2.6-1.9 4.5-3.8 7.3-11.5 8.5-15.6-4.2.5-12.3 1.9-16.8 5.7-2.7 2.3-4.5 4.6-5.1 6.8 1.5.5 2.8 1.4 3.9 2.6Zm-8.2 9.8c.3.1.6.2.9.2 1.3.2 2.6-.1 3.7-1 0 0 .2-.2.2-.3.5-.5.8-1 1.1-1.6.5-1.4.4-3-.5-4.2 0-.1-.2-.2-.2-.4l-.8-.8c-.8-.6-1.7-.9-2.7-.9s-.9 0-1.3.2c-.3 0-.6.2-.9.3-.3.1-.5.3-.8.5-.8.7-1.4 1.7-1.5 2.7v.4c0 .7 0 1.4.3 2 .2.5.4.9.8 1.3.5.6 1.2 1.1 1.9 1.3Zm-5-9.8c.3-.4.7-.7 1.1-1.1 1.2-1 2.7-1.7 4.2-1.9v-.3c.4-1.7 1.3-3.5 2.6-5.2-.3-1.1-.6-2.3-1.1-3.5-2.2-5.5-8.7-10.5-12.2-12.9-.8 4.2-2 12.3.3 17.7 1 2.4 2.7 5.7 5.2 7.1ZM124.6 152c.3.8.6 1.7 1.1 2.4.2.3.3.6.5.8.4.6.8 1.1 1.3 1.6 2.4 2.5 5.7 4.1 9.5 4.1 7.2 0 13-5.8 13-13s-5.8-13-13-13-13 5.8-13 13 .2 2.7.6 4Zm-71.1 2.6c.7 2 2.6 3.3 4.6 3.5.7 0 1.4 0 2-.3.6-.2 1.1-.5 1.5-.9-1.6-.6-3.1-1.2-4.6-1.8-1.3-.5-2.6-1.1-3.8-1.6 0 .4.1.8.3 1.1ZM71 194.8c-.5.4-.8 1-1.1 1.5-.5 1.1-.6 2.5-.2 3.7 0 .2.2.4.3.5 1.1 2.2 3.7 3.3 6.1 2.5 1.2-.4 2.3-1.3 2.8-2.5.4-.9.6-1.8.4-2.7 0-.4-.1-.7-.2-1-.4-1.1-1.1-2-2.1-2.5-.2 0-.3-.2-.5-.3-.6-.3-1.2-.4-1.8-.5h-.4c-.6 0-1.1 0-1.6.3-.7.2-1.3.6-1.7 1.1Zm-5.4-36.4c-.7.9-1.5 1.6-2.4 2.2l3.9 11.1 8.4-9.8c-3.4-1.1-6.7-2.3-9.9-3.5Zm-12.5 32.7c-.5-.5-1.2-.8-1.9-.9h-.8c-1 0-1.9.5-2.5 1.3-.6.8-1 1.7-.9 2.7 0 1 .5 1.9 1.3 2.5.3.3.6.4 1 .6 1.4.6 3.2.3 4.3-1 .7-.8 1-1.9.8-2.9 0-.2 0-.4-.1-.6-.2-.7-.6-1.3-1.1-1.8ZM443.5 31.2c.3 1.8 0 3.7-1.2 5.4.1.1.2.3.3.4.7 1.1 1.3 2.3 1.6 3.8.7.3 1.4.7 2.2 1 4.4 1.6 10.7.7 14.3-.1-2.2-2.9-6.3-7.8-10.7-9.4-1.8-.7-4.4-1.4-6.5-1ZM55.8 240.3c-.4.3-.9.5-1.4.5H54c-.6-.1-1.2-.5-1.4-1.1L44.1 222l-7.9 1.8c-2.3 5.6-4.3 12.2-6 19.9-.2.9-1 1.6-2 1.6h-.4c-1.1-.2-1.8-1.3-1.5-2.4 1.5-6.8 3.3-12.7 5.2-18l-6.5 1.5c-.6.1-1.3 0-1.8-.4s-.7-1-.7-1.7l.9-12.1c-1.5 2.2-3 4.6-4.5 7.5-13.8 27.2 4 58 9.4 66.2 5-6.1 19.9-25.2 30.3-44.4 1.2-2.2 2.1-4.4 2.9-6.7l-5.9 5.5Z"/><circle cx="78" cy="257" r="8" fill="none"/><path fill="none" d="M82.6 164.7H82c-1.1 0-2.2-.2-3.1-.7l-8.8 10.2 13.3 2.5c.6-1.1 1.4-2.1 2.4-2.8 1.6-1.1 3.6-1.5 5.5-1.2 1.9.4 3.6 1.5 4.7 3.1s1.5 3.6 1.2 5.5c0 .3-.1.6-.2.9-.4 1.1-.9 2.1-1.7 2.9-.9 1-2.1 1.7-3.4 2-.6.2-1.2.2-1.9.2s-.9 0-1.4-.1c-1.9-.4-3.6-1.5-4.7-3.1-.7-1.1-1.1-2.3-1.3-3.5l-13.3-2.5 2.8 8 1.2 3.3h2.3c.9.1 1.8.4 2.6.8 1.5.7 2.7 1.8 3.6 3.1.3.5.6 1.1.9 1.7 0 .1 0 .2.1.3.2.6.4 1.2.4 1.9v.9c0 1.4-.3 2.8-.9 4.1-.3.6-.6 1.1-1 1.6-.6.7-1.3 1.4-2 1.9-.6.4-1.3.8-2.1 1.1-1 .3-2 .5-3 .5-3.4 0-6.5-1.9-8-5-.2-.3-.3-.6-.4-.9-.4-1-.5-2.1-.5-3.1 0-2.8 1.4-5.5 3.7-7.2.2-.1.3-.2.5-.3l-1.3-3.6-2.7-7.7-8.6 10c.4.5.7 1.1.9 1.7.5 1.4.6 2.9.2 4.4-.3 1.2-.8 2.3-1.6 3.2l-1.2 1.2c-.8.6-1.6 1-2.5 1.2-.7.2-1.4.3-2.1.3h-.3c-1.5 0-2.9-.5-4.2-1.4-.2-.1-.4-.3-.6-.4l-.1-.1c-.7-.6-1.3-1.4-1.7-2.2-.5-.9-.8-1.9-.8-3-.2-2.1.5-4 1.8-5.6 2.3-2.7 6.1-3.4 9.2-1.9l8.6-10-12.6-2.4c-.6 1.3-1.5 2.4-2.8 3.3-1.4.9-2.9 1.4-4.6 1.4s-1 0-1.5-.1c-2.1-.4-4-1.6-5.2-3.4-1.2-1.8-1.7-3.9-1.3-6.1.4-2.1 1.6-4 3.4-5.2 1.8-1.2 3.9-1.7 6.1-1.3 3.7.7 6.3 3.8 6.6 7.4l12.6 2.4-3.9-11.1h-1.1c-3.8 0-7.3-2.4-8.7-6.1-.5-1.4-.6-2.9-.4-4.3-8-3.9-15.2-8.9-21.1-14.6l-7.9-.6 4.2 18c.2.9-.2 1.8-1.1 2.3l-16.7 8L19.1 178c.6.7.7 1.7.2 2.5L8.9 195.8l17.7 5.4c.4.1.7.3.9.6.3.4.5.9.5 1.4v.8l-.3 2.8-1.1 14.8 6.5-1.5L38 219l6.6-1.5h.5c.8 0 1.5.4 1.8 1.1l8 16.7 8.2-7.7 2.2-2.1 2.1-1.9 1-.9c.7-.6 1.7-.7 2.5-.2l15.3 10.4 2.7-8.8.7-2.1.7-2.2 1.4-4.6c.3-.9 1.1-1.5 2.1-1.4l18.4 1.4-3.1-13.4-1.1-4.6c-.2-.9.3-1.8 1.1-2.2l13.1-6.3 2.4-1.2 1.2-.6-1.7-1.8-10.9-11.7c-.2-.2-.3-.5-.4-.8-9.6-2.5-19.5-5.2-29-8.2-.4 0-.7.1-1.1.2Z"/><path fill="none" d="m126.9 191-14.6 7 .2 1c5.5 2.3 11.4 5.3 17.9 9.2.9.6 1.2 1.8.7 2.7-.4.6-1 1-1.7 1s-.7 0-1-.3c-5.3-3.2-10.2-5.8-14.7-7.8l3.1 13.3c.1.6 0 1.3-.4 1.8s-1 .7-1.7.7l-19.5-1.5-1.5 4.8c3.9 3.1 8.6 5.5 13.9 7 20.7 5.7 44.2 8.2 52 8.9-2-8.5-10.2-36-32.5-47.9Zm6.8-92c-7.4-8.7-16.5-17.2-27.7-25.2-.7-.5-1.3-.9-2-1.4-.7-.5-1.4-.9-2.1-1.4-.5-.3-.9-.6-1.4-.9-14.8-9.6-30.7-14.8-45.1-14.8s-8.5.5-12.4 1.4c-2 .5-3.9 1-5.7 1.7-1.3.5-2.6 1-3.8 1.6-6.7 3.3-12.2 8.1-15.8 14.2-.3.5-.6 1-.8 1.5l-.9 1.8c-.2.5-.5 1.1-.7 1.6.4 0 .7.2 1.1.3 2.6.6 5.3 1.2 8.1 1.9 3.4.8 7.1 1.7 10.8 2.8.2 0 .4.1.5.2v-.1s.1 0 .2.1c.1 0 .2.1.4.2 2.7.8 5.5 1.6 8.3 2.5.7-.4 2.2-1 4.3-1.9 1.8-.7 4.1-1.6 6.6-2.4 5.9-1.9 13.4-3.8 20.8-4.1h3.3c.6 0 1.2.3 1.5.8.3.3.4.8.4 1.2 0 .3 0 .5-.2.8-.3.7-1 1.2-1.9 1.2h-2.6c-5.1.2-10.3 1.2-15 2.4-1.9.5-3.7 1.1-5.4 1.6-2.4.8-4.5 1.6-6.2 2.3 7.5 2.7 15.3 6 23.3 10.2h.2c.6 0 15.5-1.7 32 .2 1.1.1 1.9 1.1 1.8 2.2 0 .3-.1.6-.3.8-.4.6-1 .9-1.7.9h-.2c-3-.3-5.9-.5-8.7-.7-2.2-.1-4.3-.1-6.3-.2-4.1 0-7.7.1-10.4.3 1.9 1.1 3.8 2.3 5.7 3.5 9.7 6.2 19.4 13.9 28.9 23.6.8.8.8 2.1 0 2.8-.4.4-.9.6-1.4.6s-1-.2-1.4-.6l-1.9-1.9c-.6-.6-1.2-1.2-1.9-1.8-.4-.4-.8-.8-1.2-1.1-.6-.6-1.2-1.1-1.8-1.6-9.4-8.7-19.1-15.4-28.5-20.9-1.8-1.1-3.7-2.1-5.5-3 .4.7.7 1.5 1.1 2.4 1.1 2.5 2.3 5.3 3.4 8.4.2.7.5 1.4.7 2.1l.6 2.1c.6 2.3 1.1 4.6 1.3 6.8.1 1.1-.7 2.1-1.8 2.2h-.2c-1 0-1.9-.8-2-1.8-.1-1.3-.4-2.7-.7-4.1-.2-.7-.4-1.5-.6-2.2l-.6-2.1c-1.5-4.6-3.5-9-5-12.2-1.3-2.7-2.3-4.4-2.3-4.5h-.1c-8.3-3.9-16.3-6.8-23.9-9.2.3.7.7 1.4 1 2.3.6 1.4 1.1 3 1.6 4.9 1.1 4.1 2.1 9.6 2.6 16.7 0 .8.1 1.6.2 2.5v2.6c-.3.7-.9 1.1-1.7 1.2-.2 0-.4 0-.6-.1-.8-.2-1.4-1-1.4-1.8v-.4c-.5-11-2-18.1-3.5-22.5-.9-2.6-1.9-4.4-2.6-5.5-.6-.9-1.1-1.4-1.5-1.7-1.5-.4-3.1-.8-4.6-1.2-4.6-1.2-8.9-2.2-12.9-3.1-.6-.1-1.2-.3-1.8-.4l-1.5-.3c-2.2 7.9-2 16.8.7 25.5 2.8 9 8.1 17.4 15.4 24.6.7.7 1.5 1.5 2.3 2.2.8.7 1.7 1.5 2.5 2.2 4.7 3.9 10.1 7.4 16 10.4l1.8.9c.2.1.5.2.7.3.4.2.8.4 1.2.5 1.1.5 2.2.9 3.3 1.4.8.3 1.7.7 2.5 1 1.1.4 2.2.9 3.3 1.3.6.2 1.3.5 1.9.7.6.2 1.3.5 1.9.7 2.4.9 4.8 1.7 7.3 2.6.7.2 1.4.5 2.1.7.5.2 1.1.4 1.6.5.2 0 .5.1.7.2 1.1.4 2.3.7 3.4 1.1.4.1.8.3 1.2.4.8.2 1.5.5 2.3.7l2.1.6c8.7 2.6 17.7 5.1 26.3 7.3.7.2 1.4.4 2.1.5.7.2 1.4.4 2.1.5 22.2 5.6 41.8 9.6 48.4 10.9-.2-5.5-1.2-19.9-7.5-37.6-4.1-11.7-11.1-26.3-22.9-40.9-.9-1.2-1.9-2.3-2.9-3.5Zm-43.2 53c-1.5 0-2.9-.3-4.2-.8-.6-.2-1.2-.5-1.7-.9-3.3-2-5.5-5.7-5.5-9.8s2.2-7.7 5.4-9.7c.6-.4 1.2-.7 1.8-.9.6-.3 1.3-.5 1.9-.6.8-.2 1.6-.3 2.4-.3h1.1c1.4.1 2.8.5 4 1.1.8.4 1.6.9 2.3 1.5 2.5 2.1 4.1 5.3 4.1 8.8 0 6.3-5.2 11.5-11.5 11.5Zm63.5-4c0 9.4-7.6 17-17 17s-8.7-1.8-11.8-4.8c-.5-.5-1-1-1.4-1.5-.5-.6-.9-1.1-1.2-1.7-.4-.6-.7-1.1-1-1.7-.4-.8-.7-1.6-.9-2.4-.2-.7-.4-1.5-.5-2.2-.1-.9-.2-1.7-.2-2.6 0-9.4 7.6-17 17-17s17 7.6 17 17ZM654.9 41.7c.7.1 1.3.6 1.5 1.3 0 .3.1.5 0 .8 0 1-1 1.8-2 1.8h-1.1c-.9 0-1.9-.2-2.8-.3-9.5-1.1-17-3.1-22.9-5.7 0 2 .8 4.2 2.6 6.4 2.5 3.2 6.4 5.7 10.7 7.1.8.3 1.6.5 2.4.7.9.2 1.8.3 2.7.4.4 0 .9 0 1.3.1 12.6.6 22.4-4.7 26.2-7-1.5-1.9-4.5-5.3-8.9-8.7-.5-.4-1.1-.8-1.6-1.2-.6-.4-1.1-.8-1.7-1.2-2.8-1.8-6-3.6-9.7-5-6.9-2.7-13.9-1.2-18.1 1.2-1.8 1-3.2 2.2-4.2 3.5 6.2 2.7 14.5 4.9 25.4 5.8h.2Zm-68.5 3.4c1 .3 1.6 1.3 1.5 2.3v.7c-.1 1.4 0 2.7.6 3.9.4.8.8 1.6 1.5 2.3l.4.4c.5.5 1.1.9 1.7 1.2.2.1.4.2.7.3 2.3 1 4.8.8 6.9-.4.6-.3 1.2-.7 1.7-1.2.2-.2.5-.4.7-.4.6-.2 1.4-.1 2 .3 0 0 .2.1.3.2.4.3.9.6 1.3.8.7.3 1.5.6 2.2.7.6 0 1.2.1 1.8 0 1.3 0 2.5-.5 3.6-1.2 2.9-1.8 4.3-5.3 3.5-8.6-.2-1 .3-2 1.3-2.4 3-1 5-3.6 5.4-6.7v-1.2c0-1.7-.7-3.3-1.7-4.5-.8-1-1.8-1.9-3-2.4-.4-.2-.8-.3-1.3-.5-1-.3-1.6-1.3-1.5-2.3.6-3.4-1-6.8-4.1-8.4-3.1-1.6-6.8-1.1-9.3 1.4-.7.7-1.9.8-2.7 0-1.5-1.3-3.4-1.9-5.2-1.9s-2.9.4-4.2 1.2c-3 1.9-4.4 5.4-3.5 8.7.3 1-.3 2-1.3 2.4-3.3 1.2-5.4 4.3-5.3 7.8.1 3.5 2.6 6.5 5.9 7.4ZM602 28c4.1 0 7.5 2.7 8.6 6.5.2.8.4 1.7.4 2.5 0 1.4-.3 2.8-.9 4-1.5 3-4.5 5-8.1 5s-3.3-.5-4.6-1.3c-1.2-.7-2.1-1.6-2.9-2.8-.9-1.4-1.5-3.1-1.5-4.9 0-5 4-9 9-9Z"/><path fill="none" d="M597.2 38.4c.4 1.4 1.4 2.5 2.7 3.1.6.3 1.3.5 2.1.5 2.8 0 5-2.2 5-5s-1.8-4.5-4.2-4.9h-.8c-.6 0-1.1.1-1.7.3-1.9.7-3.3 2.5-3.3 4.7s0 .9.2 1.4Zm80.8 8.3c.6.9.4 2-.4 2.7 0 0-.2.1-.4.3 4.9-3.4 9.4-6.6 13.5-9.7-1.6-2.8-2.3-6.1-1.8-9.4.9-5.5 4.9-9.8 10.1-11.2 0-.6.1-1.2.2-1.8-6.9 1.8-17 6.8-31.5 18.5 6.6 5.3 10 10.4 10.2 10.7Zm44.1-16.6s-.2-.1-.3-.2c-.5-.3-1-.5-1.6-.6h-.2c-.4 0-.9-.1-1.3-.1h-.8c-.6 0-1.2.3-1.7.5-1.8.8-3.3 2.5-3.7 4.6-.3 1.3-.1 2.5.3 3.6.3.7.7 1.3 1.2 1.9l.4.4 1.2.9c.6.3 1.2.6 2 .7h.5c1 .1 1.9 0 2.8-.3.6-.2 1.3-.5 1.8-.9.6-.4 1.1-.9 1.5-1.5.5-.7.8-1.5 1-2.4.5-2.7-.7-5.3-2.9-6.7ZM540.8 64.5c3.9 2.1 14.1 6.7 26.6 5.1.3 0 .6 0 .9-.1 1-.2 2.1-.4 3.1-.7 1.6-.5 3.1-1.1 4.6-1.9 2.2-1.2 4.1-2.6 5.7-4.3.8-.8 1.4-1.6 2-2.5.3-.4.5-.8.8-1.3.5-.9.9-1.8 1.1-2.6 0-.2 0-.4.1-.6-.3-.5-.6-1-.9-1.6-6.3 3.1-14.4 5.8-25.1 7.5h-.3c-1 0-1.8-.7-2-1.7-.2-1.1.6-2.1 1.7-2.3 10.7-1.7 18.7-4.3 24.6-7.5v-.5c-1-1.1-2.4-2-4.1-2.8-4.4-2-11.4-3-18.1.2-11.5 5.5-18.3 14.1-20.7 17.7Zm193.4-4.1c-1.4 1.4-3.1 2.5-5 3.2-1.6.6-3.3.9-4.9.9s-2-.1-2.9-.3c-.5.9-1 1.9-1.5 2.8 12.9 16.9 28.6 29 38.3 35.5-5-7.4-12-19.5-18.4-36.8-2-1.8-3.8-3.6-5.6-5.4Zm-16.7 2.4c-.5-.3-1-.6-1.5-1s-1-.8-1.4-1.2c-.5.2-.9.4-1.4.6-.7.2-1.3.4-2 .6-.8.2-1.6.3-2.4.3-9.7 17.9-26.8 42.3-56.2 69.5 16-11.1 38.5-29.3 56.2-54.3 2.3-3.2 4.4-6.6 6.3-9.8.4-.6.7-1.3 1.1-1.9.4-.7.7-1.3 1.1-2 .1-.2.3-.5.4-.7Z"/><path fill="none" d="M723.6 14.7c-.3.2-.7.3-1.1.3-.5 0-1.1-.2-1.5-.6l-.2-.2c-.9-1.1-1.9-2-3.1-2.7-1.3-.7-2.7-1.1-4.2-1.2-1.4 0-2.8.1-4.1.6-1.1.4-2.1 1-3 1.8-.7.6-1.3 1.2-1.8 2-.4.6-.8 1.3-1.1 2-.4 1-.6 2.1-.6 3.2v.8c0 .5-.1.9-.4 1.3-.3.4-.8.7-1.3.8-.2 0-.5 0-.7.1-.7.2-1.4.4-2.1.7-2.9 1.4-5.1 4.1-5.6 7.4-.3 1.5-.1 3.1.3 4.5.2.6.4 1.2.7 1.7l.3.6c.4.6.8 1.2 1.4 1.7l.8.8c.6.5 1.2.9 1.9 1.2.9.5 1.4 1.6 1 2.5-1.2 2.8-.9 5.9.5 8.5.3.6.7 1.1 1.1 1.7.4.5.8.9 1.3 1.3 0 0 .1 0 .2.1 1.2 1 2.6 1.6 4.1 1.9.8.2 1.6.2 2.4.2.7 0 1.4-.1 2.2-.3.6-.2 1.3-.4 1.9-.7.3-.2.7-.4 1-.6.3-.2.7-.3 1.1-.3.6 0 1.2.3 1.6.7.8 1 1.8 1.8 2.8 2.4.6.3 1.2.6 1.8.8.7.2 1.3.4 2 .4 1.5.2 3.1 0 4.6-.6 1.4-.5 2.7-1.4 3.7-2.4.5-.5.9-1 1.3-1.6.4-.6.7-1.3 1-2 .4-1.1.6-2.4.6-3.7 0-.3 0-.7.2-1 .3-.6.9-1 1.5-1.1h.2c.7 0 1.3-.3 1.9-.5 3.3-1.2 5.9-4.1 6.5-7.7.7-4.3-1.5-8.6-5.4-10.6-.9-.5-1.4-1.6-1-2.5.6-1.4.8-2.9.7-4.3 0-.8-.2-1.6-.4-2.3-.3-.9-.7-1.8-1.2-2.6s-1.2-1.6-2-2.2c-2.8-2.3-6.6-2.9-9.9-1.6-.6.2-1.2.5-1.8.9Zm3.1 14.2c1 1.2 1.7 2.7 2.1 4.2.4 1.4.4 3 0 4.5-.2 1-.5 1.9-1 2.7-.5 1-1.2 2-2.1 2.7-.2.2-.5.5-.8.7-.3.2-.5.4-.8.6-.6.4-1.2.7-1.8.9-1.2.5-2.5.7-3.8.7s-1.4 0-2.1-.2h-.2c-1.2-.3-2.3-.7-3.3-1.3-.1 0-.3-.2-.4-.3-.4-.3-.8-.6-1.2-1-.5-.5-.9-1-1.3-1.5-1.6-2.3-2.4-5.2-1.8-8.1.8-4.1 4-7.1 7.8-8.1.6-.2 1.3-.2 2-.3h.9c.4 0 .8 0 1.1.1h.5c.1 0 .3 0 .4.1.5.1 1.1.3 1.6.5.1 0 .2 0 .3.1 1.4.7 2.6 1.6 3.6 2.8ZM606.8 89.6c1-1.7 1.8-3.4 2.4-5.1.6-1.5 1.1-3 1.4-4.4.2-1 .4-1.9.6-2.8.2-.9.3-1.8.3-2.6v-1.9c0-5.2-1.4-9.5-4.2-11.9h-.1c-3.2 6.1-7.6 12.6-13.7 19.6-.2.8-.8 3-1.1 5.8 0 .8-.2 1.6-.2 2.4v6.9c0 .3 0 .7-.1 1-.3.7-.9 1.1-1.6 1.2h-.2c-.7 0-1.3-.4-1.7-.9-.2-.2-.3-.5-.3-.8V95c-.1-1.3-.2-2.6-.1-3.9v-.2c0-.8 0-1.6.1-2.3 0-.9.1-1.7.2-2.4-1.5 1.5-3 3.1-4.7 4.7-.6.6-1.3 1.2-1.9 1.8-.5.5-1.1 1-1.6 1.5-.4.4-.9.5-1.3.5s-1.1-.2-1.5-.7c0 0 0-.1-.1-.2-.6-.8-.5-1.9.3-2.6 6.3-5.8 11.5-11.3 15.7-16.5-4.3 1.4-10 3-13.2 3.5h-.3c-1 0-1.8-.7-2-1.7-.1-1.1.6-2.1 1.7-2.2 4.9-.6 16.6-4.6 18-5.1 2.4-3.4 4.4-6.7 6.1-9.8-.3-.2-.7-.3-1-.5-2.1 1.5-4.6 2.3-7.1 2.3s-3.8-.5-5.6-1.4c-.2-.1-.5-.3-.7-.4-.2 0-.5.2-.7.2-.4 1-1 2-1.6 3-3.6 5.3-9.7 9.3-16.4 10.8-.2.3-.4.7-.7 1-10.9 18-11.7 36-11.7 41.8 5.9-.4 24.2-2.7 40.1-16.3 1.6-1.4 3.1-2.9 4.4-4.4.6-.7 1.2-1.5 1.8-2.2.5-.8 1.1-1.5 1.5-2.3.2-.4.5-.8.7-1.1ZM919.5 19c-5.2 0-9.5 4.3-9.5 9.5s4.3 9.5 9.5 9.5 9.5-4.3 9.5-9.5-4.3-9.5-9.5-9.5ZM796 33.5c.3-5.3 1.8-10 4.1-13.6-1.3-.8-2.7-1.7-4.1-2.4-13-7.2-23.8-8.6-29.5-8.7 4.8 5.1 9.4 11.8 13.2 20.6l1.8-.3c4.7-.5 9.7 1.1 14.5 4.5Z"/><path fill="none" d="M764 42.2c-8.5-8.3-15.4-14-21.1-17.5 0 .7-.2 1.3-.4 2 4.6 3 7 8.4 6.1 13.9-.9 5.1-4.5 9.3-9.3 10.9-.4.1-.7.2-1.1.3 0 .7-.2 1.3-.3 1.9-.3 1.1-.6 2.1-1.1 3.1 0 0 0 .2-.1.2l.3.3 3.1 3.1c1 1 2.1 1.9 3.1 2.9 4.2 3.7 9 7.3 14.1 10.7.3.2.5.3.8.5-2-11.1.2-23 6-32.5Zm-89.4 61c-2.5 1.1-5.2 1.8-8.1 1.8h-1.6c-5.5 9.6-10.7 17.5-15.2 23.7 8.2-7.6 16.7-16.1 24.9-25.4Zm-53.7-55.9c.4 4.4-1.7 8.8-5.6 11.2-1.1.7-2.2 1.1-3.3 1.4 2.3 3.1 3.5 7.2 3.6 12 6.6-4.4 13.9-9.7 21.7-15.8-4-1.7-7.6-4.3-10.2-7.6-1.1-1.4-1.9-2.8-2.5-4.3-1 1.2-2.3 2.3-3.8 3Zm41.8 53.2c.7.2 1.4.3 2.1.4h2.3c8.3-.3 14.9-7.1 14.9-15.5s-1-6.3-2.7-8.8c-.4-.6-.9-1.2-1.4-1.8l-1.5-1.5c-.1 0-.3-.2-.4-.3-.6-.5-1.2-.9-1.9-1.3-.8-.4-1.6-.8-2.4-1.1-1.6-.6-3.3-.9-5.1-.9-6.2 0-11.6 3.7-14 9-.4.8-.7 1.6-.9 2.5-.2.7-.4 1.5-.4 2.3 0 .6-.1 1.2-.1 1.8 0 7.2 5 13.3 11.7 15Zm-13.2-42h-2.3c-1.8 0-3.5-.4-5.2-.8-9.8 7.8-18.8 14.2-26.6 19.4-.3 1.9-.7 3.8-1.3 5.7 24.3-9.1 45.2-20.9 61.5-31.9-4 2.6-13.5 7.6-26 7.6Zm55 3c-1.7-.5-3.4-1.4-4.9-2.6-.1-.1-.3-.2-.4-.4-.5-.5-1-.9-1.4-1.4-.4-.5-.8-1.1-1.2-1.6-2-3.2-2.6-7.2-1.6-10.9-.4-.3-.9-.6-1.3-.9-2.7 5.5-5.5 11.9-8.5 19.3-.1.3-.2.5-.3.8-.4 1-.9 2.1-1.3 3.1s-.9 2-1.3 3c-.4.9-.8 1.8-1.2 2.8 3 3.4 4.9 7.9 4.9 12.9s-.2 3.2-.6 4.7c7-9 13.5-18.6 19.1-28.7Z"/><path fill="none" d="M666.5 66c3.5 0 6.8 1 9.7 2.6l1.2-.6c.6-.3 1.2-.6 1.8-1 .8-1.9 1.6-3.7 2.4-5.7 2.1-5.2 4.1-9.8 6-14.1-18.3 13.3-44.1 29.1-75.3 40.4-.3.7-.7 1.5-1.1 2.2 10.7-1.9 23.3-4.7 36.5-9.2 2.2-8.4 9.8-14.7 18.9-14.7Zm65.6 58.3c-.9-.6-1.1-1.8-.6-2.7 1.2-2.1 1-4.7-.7-6.5-1.6-1.8-4.2-2.3-6.4-1.3-1 .4-2.1 0-2.6-.8-1.2-2.1-3.6-3.2-6-2.7s-4.1 2.5-4.3 4.9c0 1-1 1.8-2 1.8-2.4 0-4.5 1.5-5.2 3.8-.7 2.3.1 4.9 2.1 6.2.9.6 1.1 1.8.6 2.7-1.2 2.1-1 4.7.7 6.5 1.6 1.8 4.2 2.3 6.4 1.3.3-.1.5-.2.8-.2.7 0 1.4.4 1.7 1 1.2 2.1 3.6 3.1 5.9 2.6 2.3-.5 4.1-2.4 4.3-4.8.1-1 1-1.8 2-1.8 2.5 0 4.7-1.5 5.4-3.8.7-2.3-.1-4.9-2.1-6.2Zm-6 3.8c-.7 1.8-2 3.3-3.8 4.1-1 .5-2 .7-3.1.7s-1.7-.1-2.5-.4c-3.8-1.4-5.7-5.6-4.4-9.3 1.4-3.8 5.6-5.7 9.3-4.4 3.8 1.4 5.7 5.6 4.4 9.3ZM496.8 93.4c-1 .2-2-.5-2.3-1.5-.6-2.8-3.1-4.9-6-5.1-2.9-.2-5.5 1.5-6.6 4.2-.4 1-1.4 1.5-2.4 1.2-2.8-.8-5.7.2-7.3 2.6-1.6 2.4-1.4 5.6.4 7.8.7.8.6 2-.2 2.7-2.1 2-2.6 5.1-1.4 7.7 1.3 2.6 4 4 6.9 3.6h.3c.9 0 1.7.6 1.9 1.5.7 2.7 3.1 4.7 5.9 4.9 2.8.2 5.4-1.4 6.5-4 .4-1 1.5-1.5 2.5-1.1 2.8.9 5.8-.2 7.4-2.6 1.6-2.4 1.4-5.6-.4-7.8-.7-.8-.6-2 .2-2.7 2.1-2 2.6-5.1 1.4-7.7-1.3-2.6-4-4-6.9-3.6Zm-2.8 16.3c-1.3 1.7-3.1 2.9-5.2 3.2-.4 0-.9.1-1.3.1-1.7 0-3.3-.5-4.7-1.5-3.6-2.6-4.4-7.6-1.8-11.2 1.3-1.7 3.1-2.9 5.2-3.2 2.1-.3 4.2.2 6 1.4 3.6 2.6 4.4 7.6 1.8 11.2ZM31.7 335c-5.8 2-11.8 4.5-18 7.5 3.8-.4 8.1-.4 13 .4 1.6-1.7 3.3-3 5-4.1-.1-1.3-.1-2.6 0-3.8Z"/><path fill="none" d="M489.8 101.8c-.7-.5-1.5-.8-2.4-.8-1.2 0-2.5.6-3.3 1.7-.6.9-.9 1.9-.7 3 .2 1.1.7 2 1.6 2.6 1.8 1.3 4.3.9 5.6-.9.6-.9.9-1.9.7-3-.2-1.1-.7-2-1.6-2.6ZM75.1 356.5c-.6-.6-1.2-1.3-1.9-1.9-3.5-3.4-7.5-6.4-12.2-8.9-7.7-4.1-13.7-5.9-18.6-5.9s-4.4.4-6.3 1.1c-.6.2-1.2.5-1.8.9-.6.3-1.2.7-1.7 1.1-.4.3-.9.7-1.3 1 .7.2 1.3.4 2 .6.9.3 1.9.6 2.8.9 1.2.4 2.5.9 3.7 1.5 3.9 1.6 8.1 3.8 12.6 6.6 1.5.9 2.9 1.9 4.4 2.9 1.1.8 2.2 1.5 3.4 2.4 3.2 2.3 6.5 5 10 8 .8.7.9 2 .2 2.8-.4.5-1 .7-1.5.7s-.9-.2-1.3-.5c-6-5.1-11.5-9.2-16.6-12.5-4.9-3.1-9.4-5.4-13.6-7.1-3.3-1.4-6.4-2.3-9.3-2.9-.7.8-1.3 1.7-2 2.6-1.5 2.2-1.8 5.5-.9 9.2 1.7 6.8 7.9 16.2 20.3 22.4 19.2 9.6 41.4 17 49.2 19.5-1-7.4-4.7-27.2-17.9-42.5-.6-.6-1.1-1.3-1.7-1.9Z"/><path fill="none" d="M134.7 356.4c-6.8-10-28.3-37-64-38.6-17.3-.8-28.1 2.8-32.7 10.9 38.5-10.7 59.2 3.9 71.7 12.8l1.4 1c.9.6 1.1 1.9.5 2.8-.6.9-1.9 1.1-2.8.5l-1.4-1c-8-5.7-19-13.5-35.9-15.4-10.7-1.2-22.5.2-35.4 4.1-.1.5-.2.9-.3 1.4-.1.7-.2 1.3-.2 2 7.3-2.6 16.2-.8 27.4 5.2 6.2 3.3 11.4 7.5 15.7 12.1 6.2-.3 12-.4 17.3-.4 19.1 0 32.3 1.5 38.7 2.5Z"/><circle cx="521.5" cy="49.5" r="6.5" fill="none"/><path fill="none" d="m429.5 28.6.6-.9c.8-1 1.9-1.8 3-2.3 0-1.4.4-3 1.2-4.8-.4-.8-.9-1.6-1.4-2.5-2.6-3.9-8.3-6.8-11.6-8.3 0 3.6.5 10 3.1 13.9 1.1 1.7 2.9 4 5.1 4.8Zm-1 3.8c-1.1-.4-2.3-1-3.6-2.1-.9.1-1.8.3-2.9.6-4.5 1.3-9 5.8-11.5 8.5 3.5 1.1 9.7 2.6 14.2 1.3 2.7-.7 4.7-1.8 5.9-3.1-1.4-1.4-2.1-3.3-2.2-5.2ZM315.2 55.2h.5c-.8-1.4-1.5-2.8-1.9-4.4-.2-.8-.3-1.6-.5-2.3-2.1 1.2-3.9 2.4-5.5 3.4 1 .4 2 .8 3.1 1.2 1.5.6 2.9 1.4 4.3 2.1Zm125.5-8.9c.1-3.1-.3-5.5-1.4-7-1 .5-2.1.7-3.2.7s-1.2 0-1.8-.3c-.8 1.1-1.9 2-3.2 2.8-.2 1-.4 2.2-.4 3.4-.1 2.7.8 5.6 1.9 8.3 1.8.4 3.5.8 5.2 1.2 1.6-2.8 3-6.1 3.1-9.1Z"/><circle cx="551.5" cy="22.5" r="4.5" fill="none"/><path fill="none" d="M874.5 41c-5.4 0-10.1 2.7-12.9 6.9-.5.7-.8 1.4-1.2 2.1-.4.8-.7 1.7-.9 2.7-.3 1.2-.5 2.5-.5 3.8 0 5.6 3 10.6 7.5 13.3.8.5 1.7.9 2.6 1.2.8.3 1.5.5 2.4.7 1 .2 2 .3 3.1.3 8.5 0 15.5-7 15.5-15.5s-7-15.5-15.5-15.5Z"/><circle cx="483.5" cy="29.5" r="8.5" fill="none"/><path fill="none" d="M855 56.5c0-3.1.8-6.1 2.1-8.7-1.6-3.2-3.4-6.4-5.4-9.7-8-13.4-20.6-20-29.9-21.7-1.8-.3-3.6-.5-5.2-.5-4.2 0-7.7 1.1-10.3 3.1 0 0-.1 0-.2.1 7.1 5 14.6 11.8 21.8 20.9.2 0 .4-.1.7-.1.3 0 7.7.2 19.8 3.2 1.1.3 1.7 1.4 1.5 2.4-.2.9-1 1.5-1.9 1.5h-.5c-7.6-1.9-13.4-2.6-16.4-2.9 3.3 4.5 6.5 9.4 9.6 15 .5 1 .2 2.2-.8 2.7-.3.2-.6.3-1 .3-.7 0-1.4-.4-1.7-1-5.4-9.6-11.4-17.9-18-25 .8 5.5 2 14.9 1.8 19.7 0 1.1-.9 1.9-2 1.9s-2-1-1.9-2.1c.3-6.4-2.4-22.8-2.4-23 0-.4 0-.7.1-1-3.6-3.5-7.4-6.6-11.3-9.3-2.1 3.3-3.4 7.8-3.5 13v1.8c0 1 .1 2 .2 3.1.1 1.3.3 2.5.6 3.9 1.2 5.9 3.8 12.4 8.4 18.2.8 1 1.7 2 2.6 2.9.7.8 1.5 1.5 2.3 2.2.1.1.3.2.4.4 20 17.3 48.7 19.3 57.1 19.6-.5-2.4-1.6-6.6-3.3-12-7.7-2.6-13.3-9.9-13.3-18.5Zm-45.1 42.2c12.5 4 23.5 6.5 31.2 7.9-6.9-3.9-16.6-10-28.3-19-.8 4-1.8 7.7-2.9 11.2ZM440.7 26.4c.4.3.7.7 1.1 1 1.3-.4 2.8-.5 4.7-.3.6-.6 1.1-1.2 1.7-1.9 2.9-3.7 3.9-10 4.3-13.6-3.5 1.2-9.4 3.6-12.3 7.3-1.2 1.5-2.7 3.8-3 6 1.3.2 2.5.7 3.5 1.5Z"/><circle cx="608.5" cy="118.5" r="6.5" fill="none"/><path fill="none" d="M783.3 33H782c-.2 0-.5 0-.7.1 2.9 7.6 5.2 16.7 6.6 27.5 0 .5.1.9.2 1.4.5.7 1.8 2.7 3.8 5.1 2.2 2.7 5.3 5.9 9.1 8.6.9.6 1.1 1.8.5 2.7v.1c-.4.5-1 .8-1.6.8s-.8-.1-1.2-.4c-4-2.9-7.3-6.3-9.8-9.2.4 4.8.6 9.9.7 15.3 0 1.1-.9 2-2 2s-2-.9-2-2c0-8.3-.6-15.8-1.4-22.6-.1-1.1-.3-2.2-.4-3.2-.2-1.1-.3-2.3-.5-3.4-.3.6-.6 1.3-.9 2-.3.6-.6 1.3-.9 1.9-2.1 4.5-4.6 9.4-6.4 12.2-.4.6-1 .9-1.7.9s-.8-.1-1.1-.4c-.9-.6-1.1-1.9-.5-2.8 1.9-2.8 4.6-8.3 6.7-12.9.3-.7.6-1.3.9-2 .3-.7.6-1.4.9-2 .9-2.1 1.6-3.6 1.7-3.9-1.2-5.4-2.7-10.3-4.3-14.6-2.9 1.4-5.8 3.9-8.3 7.2-.4.5-.8 1.1-1.2 1.7-.3.5-.7 1.1-1 1.7-4.5 7.8-7.7 19.9-4.1 32.6 0 .3.1.6.2.8.2.7.4 1.3.6 2 .3 1 .7 1.9 1 2.9 8.2 22.4 22.7 36.3 27.3 40.3 2.5-3.1 8.2-11.1 12.6-22.5.2-.6.5-1.2.7-1.8.2-.6.5-1.3.7-1.9 1.3-3.9 2.4-8.2 3.2-12.7.1-.8.2-1.5.4-2.3l.3-2.4c.2-2.2.4-4.4.5-6.7 0-1.5 0-3-.1-4.4-8.2-7.9-13.4-19.1-14.1-30.3-4.2-3.7-8.7-5.7-12.7-5.7Zm-62.9 89.6c-.4-.1-.7-.2-1.1-.2-1.3 0-2.6.8-3.1 2.2-.6 1.7.3 3.6 2 4.2.8.3 1.7.3 2.5-.1s1.4-1 1.7-1.9c.3-.8.3-1.7-.1-2.5s-1-1.4-1.9-1.7Z"/><circle cx="285.5" cy="10.5" r="4.5" fill="none"/><path d="M262.5 145c-10.8 0-19.5 8.7-19.5 19.5s8.7 19.5 19.5 19.5 19.5-8.7 19.5-19.5-8.7-19.5-19.5-19.5Zm0 35c-8.5 0-15.5-7-15.5-15.5s7-15.5 15.5-15.5 15.5 7 15.5 15.5-7 15.5-15.5 15.5Z"/><path d="M420.7 93.6c35.1 0 52.8-30.9 53-31.2.4-.7.3-1.5-.1-2.2-.5-.6-1.3-.9-2-.8 0 0-7.5 1.4-29.9-3.2 1.6-3 2.9-6.5 3-9.8v-1.1c.1 0 .2 0 .3.1 2.2.8 4.8 1.1 7.3 1.1 6.1 0 11.9-1.8 12.3-1.9.6-.2 1.1-.6 1.3-1.2.2-.6.2-1.2-.2-1.8-.3-.4-6.6-10.5-14.3-13.3-.2 0-.3-.1-.5-.2.1-.2.3-.3.4-.5 5.1-6.4 5.3-18.3 5.3-18.8 0-.6-.3-1.2-.8-1.6-.5-.4-1.1-.5-1.7-.4-.5.1-12 3.1-17.1 9.5 0 0-.1.2-.2.3-.2-.3-.3-.6-.5-.8-4.5-6.8-15.8-10.7-16.2-10.9-.6-.2-1.2-.1-1.8.2-.5.3-.8.9-.9 1.5 0 .5-.8 12.4 3.7 19.2l.6.9c-.3 0-.5.1-.8.2-7.9 2.2-15.1 11.7-15.4 12.1-.4.5-.5 1.1-.3 1.7.2.6.6 1.1 1.2 1.3.4.2 7.5 3 14.4 3s3.4-.2 5-.6c.3 0 .5-.2.8-.2v1.4c-.1 2.4.4 4.9 1.2 7.3-2.1-.5-4.2-1.1-6.4-1.7-8.4-2.3-16.1-1.1-21.9 3.3-4.8 3.6-7.7 9.2-7.7 14.5v1.1c-3.1-2.6-6.8-4.5-11-5.6.2-1 .3-2 .3-3.1 0-5.6-2.4-10.7-6.2-14.3 15.7-9.4 23.5-17.6 24-18.1.4-.5.6-1.1.5-1.7 0-.6-.5-1.1-1-1.4-1.3-.7-31.7-17-63.4-6.6-2.7.9-5.2 1.9-7.4 2.9-1.6-5.9-7-10.2-13.4-10.2s-13.9 6.3-13.9 13.9 5.7 13.4 12.9 13.9c-.2 1.3-.2 2.7-.2 4.2-2.9 1.7-5.4 3.2-7.5 4.5-.9.6-1.7 1.1-2.5 1.5-11.9-3.4-20.2-.9-26.5 7.9-10.1 1.5-20.6 3.7-31.8 6.5 0-.1.2-.2.3-.3 24.6-33.8 32.7-41 32.8-41.1.6-.5.8-1.3.6-2.1s-.9-1.3-1.7-1.4c-1.7-.2-41.3-4.7-62.6 15.6-7.1 6.8-10.6 13.6-10.5 20.3 0 3.8 1.3 7.6 3.6 11.3-1.4 2.6-2.6 5-3.6 7l-1.8 3.6c-5.8 2-11.8 4.1-17.9 6.4.9-1.5 1.7-3.2 2.5-4.9 6.3-14.5 4-31.7 1-43.5-3.3-12.7-7.9-21.9-8.1-22.3-.3-.6-.9-1-1.6-1.1-.7 0-1.4.3-1.8.9 0 0-3.3 4.8-14.4 21.2-4.8-4.4-11.2-9.8-19.2-15.2C124.1 6.7 94.6-8 55.8-9.3 34.3-10 14.8-2.9 2.3 10c-9.2 9.5-13.8 21.1-13.1 32.8C-10 54.5-3.6 65.9 6.8 74c1.5 1.2 3.1 2.3 4.7 3.3-.1.3-.2.6-.4.9-4.4-1-8.3-2-11.5-3.1-1-.4-2.2.2-2.5 1.2-.4 1 .2 2.2 1.2 2.5 3.3 1.1 7.2 2.1 11.5 3.2-2.4 8.6-2.1 18.2.8 27.6 2.6 8.3 7.2 16.1 13.3 23l-6.2-.5c-.6 0-1.3.2-1.7.7-.4.5-.6 1.1-.4 1.8l4.4 19.1-17.7 8.5c-.6.3-1 .8-1.1 1.4-.1.6 0 1.3.5 1.7l13.4 14.3-11 16.2c-.4.5-.4 1.2-.2 1.8.2.6.7 1.1 1.3 1.2l18.7 5.7v.5c-3.1 3.2-5.9 7.4-8.6 12.6-7.1 14-7.4 31.1-.8 49.2 4.9 13.6 11.8 22.9 12.1 23.3.4.5.9.8 1.5.8s1.2-.3 1.5-.7c.2-.2 19.6-23.5 32.5-47.1 2.4-4.4 3.9-9 4.7-13.6l3.1-2.9 16.2 11c.5.4 1.2.4 1.8.2.6-.2 1.1-.7 1.2-1.3l3-9.8c4.1 3 8.8 5.3 14.1 6.8 25.5 7.1 55.1 9.3 55.4 9.3h.1c.6 0 1.1-.2 1.5-.7.4-.5.6-1.1.5-1.7 0-.5-2.1-11.6-8.4-24.2-6.3-12.5-14.7-22-24.7-27.9 0-.2.2-.3.2-.5.1-.6 0-1.3-.5-1.7l-11-11.8c19.4 4.9 36.4 8.4 44.3 10-1.2 1.4-1.9 2.3-2 2.4-.4.5-.5 1.1-.3 1.7.2.6.6 1.1 1.2 1.3.4.2 8.9 3.5 17 3.5 2 0 4-.2 5.8-.7.5-.1 1-.3 1.5-.5 0 .7-.1 1.4-.2 2.2-.4 9.6 7.6 21.1 7.9 21.6.4.5.9.8 1.6.8.6 0 1.2-.3 1.5-.7.4-.5 9.3-11.3 9.7-20.8v-1.8l.9.3c2.6 1 5.6 1.3 8.5 1.3 7.2 0 14.1-2.1 14.5-2.2.6-.2 1.1-.6 1.3-1.2.2-.6.2-1.2-.2-1.8-.3-.5-7.8-12.3-16.8-15.7-.4-.1-.7-.3-1.1-.4.3-.3.6-.7.8-1 6-7.5 6.3-21.5 6.3-22.1 0-.6-.3-1.2-.8-1.6-.5-.4-1.1-.5-1.7-.4-.6.1-14.2 3.6-20.1 11.1-.2.3-.4.5-.6.8l-.9-1.5c-5.3-8-18.6-12.6-19.1-12.8-.6-.2-1.2-.1-1.8.2s-.8.9-.9 1.5c0 .6-.9 14.6 4.4 22.6.3.5.7 1 1.1 1.5-.5.1-1 .2-1.5.4-3.3.9-6.4 2.9-9.2 5.1-.4-7-2-20-7.5-35.5-4.1-11.7-11-26.1-22.3-40.7 5.3-1.2 10.7-2.6 16.2-4.2-.9 1.7-1.7 3.6-2.3 5.6-1.6 4.9-.9 10.5 2.1 15.3 4.2 6.8 12.3 11.4 22.8 12.9 45.7 6.6 56.9 10.8 57 10.8.2 0 .5.1.7.1.5 0 1-.2 1.4-.6.6-.6.7-1.4.5-2.1-.2-.4-4.2-10.7-11.9-22.4-7.2-10.9-19.3-25-35.3-30.4-.8-.3-1.5-.5-2.3-.7 9.8-3.6 19.3-6.8 28.4-9.7 1.7.6 3.6.9 5.5.9h1.3c2.7-.2 5.4-.9 8-2.2 2 1.1 4.6 2.5 7.7 4.4-.4.4-.8.7-1.2 1.1-2.9 2.8-4.5 6.7-4.3 11.1.2 6.7 4.4 13.9 11.9 20.3 30.7 26.2 38.5 31.4 38.8 31.6.3.2.7.3 1.1.3s.5 0 .8-.2c.6-.3 1.1-.8 1.2-1.5.2-1.4 5-33.4-14.4-59.2-4.9-6.5-10.4-10-16.4-10.5-5.4-.4-10.2 1.7-14 4.3-2.7-1.7-5.1-3.1-7.1-4.2 1.1-.8 2.1-1.6 3.1-2.5 11.9-3.1 23.1-5.6 33.9-7.4-1.1 2.9-1.1 6.5.3 10.3 2.4 6.9 9.5 16.1 22.5 21.3.1 0 .3 0 .4.1-1.6 2.2-2.6 4.9-2.6 7.9 0 7.2 5.9 13.1 13.1 13.1s13-5.8 13.1-13c2.4.7 4.7 1.4 7 2 7.8 10.4 21.3 13.7 35.6 17.1 10.1 2.5 20.9 5.1 31.1 10.4-3.4 2.1-6.6 5.3-9.5 9.6-2.3 3.4-2.8 7.8-1.5 12.4 2.4 8.4 10.5 16.5 21.8 21.5 41.3 18.3 47.3 25.3 47.5 25.5.4.5 1 .8 1.6.8s.5 0 .7-.1c.8-.3 1.4-1.2 1.3-2.1 0-.5-1.1-11.5-5.4-24.9-4-12.5-11.7-29.3-25.7-38.8-9.9-6.7-18.7-8.7-26.3-6.1-11.6-6.5-23.8-9.5-34.6-12.1-11.6-2.8-22-5.4-29.2-11.3 7 1.8 11.6 2.7 11.7 2.7h.4c.5 0 1-.2 1.4-.5.5-.4.7-1.1.6-1.7-.2-1.3-4.1-27.1-23-44 2.2.7 4.6 1 7.2 1s5.8-.4 9-1.2c.3 6.9 4.3 12.9 10 16.1v.6c-.4 7 2.2 18 10.8 25.8 7.3 6.7 18.5 11.3 33.3 13.6 8.9 1.4 16.4 1.6 19 1.6h1c.7 0 1.3-.4 1.6-.9.4-.5.4-1.2.2-1.9 0-.1-4.7-11.4-12.5-26.2 3.6 1.4 8 2.2 13.1 2.3h2.2Zm-240.5 33.6c-9.3-1.3-16.4-5.2-19.9-11-2.4-3.8-3-8.2-1.7-12 .8-2.3 1.7-4.4 2.7-6.2 9.3.3 17.1 2.4 35.7 12.3.3.2.6.2.9.2.7 0 1.4-.4 1.8-1.1.5-1 .1-2.2-.8-2.7-12.3-6.5-20.1-9.7-26.7-11.3-1.3-.3-2.5-.6-3.8-.8-.7-.1-1.3-.2-2-.3-.8 0-1.6-.2-2.4-.2l.9-.9c2.9-2.9 6.4-4.6 10.7-5.1.9 0 1.9-.1 2.8-.1.8 0 1.6 0 2.4.1.6 0 1.3.1 1.9.2 2.5.4 5.1 1 7.9 2 23.5 7.8 38.3 36.2 43.1 46.6-6.5-1.7-21.7-5.2-53.6-9.8ZM166.9 181c-6.6-1.3-26.1-5.3-48.4-10.9-.7-.2-1.4-.3-2.1-.5-.7-.2-1.4-.4-2.1-.5-8.7-2.2-17.6-4.7-26.3-7.3l-2.1-.6c-.8-.2-1.5-.5-2.3-.7-.4-.1-.8-.3-1.2-.4-1.2-.4-2.3-.7-3.4-1.1-.2 0-.5-.1-.7-.2-.5-.2-1.1-.4-1.6-.5-.7-.2-1.4-.5-2.1-.7-2.5-.9-5-1.7-7.3-2.6-.6-.2-1.3-.5-1.9-.7-.6-.2-1.3-.5-1.9-.7-1.1-.4-2.2-.9-3.3-1.3-.9-.3-1.7-.7-2.5-1-1.1-.5-2.2-.9-3.3-1.4-.4-.2-.8-.4-1.2-.5-.2-.1-.5-.2-.7-.3l-1.8-.9c-5.9-2.9-11.3-6.4-16-10.4-.9-.7-1.7-1.4-2.5-2.2-.8-.7-1.5-1.4-2.3-2.2-7.2-7.2-12.6-15.6-15.4-24.6-2.7-8.8-2.9-17.7-.7-25.5l1.5.3c.6.1 1.2.3 1.8.4 4 .9 8.4 1.9 12.9 3.1 1.5.4 3 .8 4.6 1.2.3.3.8.8 1.5 1.7.8 1.1 1.7 2.9 2.6 5.5 1.6 4.5 3 11.5 3.5 22.5v.4c0 .9.6 1.6 1.4 1.8.2 0 .4.1.6.1.8 0 1.4-.5 1.7-1.2v-.2c0-.2.1-.5 0-.7v-1.7c0-.9 0-1.7-.2-2.5-.5-7.1-1.5-12.6-2.6-16.7-.5-1.9-1.1-3.5-1.6-4.9-.3-.8-.7-1.6-1-2.3 7.6 2.3 15.6 5.3 23.9 9.2h.1s1 1.8 2.3 4.5c1.5 3.2 3.5 7.6 5 12.2l.6 2.1c.2.7.4 1.5.6 2.2.3 1.4.6 2.8.7 4.1.1 1 1 1.8 2 1.8h.2c1.1-.1 1.9-1.1 1.8-2.2-.2-2.2-.7-4.5-1.3-6.8l-.6-2.1c-.2-.7-.5-1.4-.7-2.1-1-3-2.3-5.9-3.4-8.4-.4-.8-.8-1.6-1.1-2.4 1.8 1 3.7 1.9 5.5 3 9.5 5.4 19.1 12.2 28.5 20.9.6.5 1.2 1.1 1.8 1.6.4.4.8.7 1.2 1.1.6.6 1.2 1.2 1.9 1.8l1.9 1.9c.4.4.9.6 1.4.6s1-.2 1.4-.6c.8-.8.8-2 0-2.8-9.5-9.7-19.2-17.4-28.9-23.6-1.9-1.2-3.8-2.4-5.7-3.5 2.8-.2 6.4-.3 10.4-.3 2 0 4.1 0 6.3.2 2.8.1 5.7.3 8.7.7h.2c.7 0 1.3-.4 1.7-.9.2-.2.3-.5.3-.8.1-1.1-.7-2.1-1.8-2.2-16.5-1.8-31.4-.2-32-.2h-.2c-8-4.2-15.8-7.5-23.3-10.2 1.7-.7 3.8-1.5 6.2-2.3 1.7-.6 3.5-1.1 5.4-1.6 4.7-1.3 9.9-2.3 15-2.4h2.6c.8 0 1.6-.5 1.9-1.2.1-.2.2-.5.2-.8 0-.5-.1-.9-.4-1.2-.4-.5-.9-.8-1.5-.8H76c-7.5.3-14.9 2.2-20.8 4.1-2.6.8-4.8 1.7-6.6 2.4-2.1.8-3.6 1.5-4.3 1.9-2.8-.9-5.6-1.8-8.3-2.5-.1 0-.3-.2-.4-.2-.1 0-.2 0-.2-.1v.1c-.2 0-.4-.1-.5-.2-3.8-1-7.4-2-10.8-2.8-2.8-.7-5.5-1.3-8.1-1.9-.4 0-.7-.2-1.1-.3.2-.5.4-1.1.7-1.6l.9-1.8c.3-.5.5-1 .8-1.5 3.6-6.1 9.1-10.9 15.8-14.2 1.2-.6 2.5-1.1 3.8-1.6 1.8-.7 3.7-1.3 5.7-1.7 4-.9 8.1-1.4 12.4-1.4 14.4 0 30.3 5.1 45.1 14.8.5.3.9.6 1.4.9.7.5 1.4.9 2.1 1.4.7.5 1.3.9 2 1.4 11.2 8 20.3 16.6 27.7 25.2 1 1.2 2 2.3 2.9 3.5 11.7 14.6 18.7 29.2 22.9 40.9 6.2 17.7 7.3 32.1 7.5 37.6Zm-53.7-7.4 10.9 11.7 1.7 1.8-1.2.6-2.4 1.2-13.1 6.3c-.8.4-1.3 1.3-1.1 2.2l1.1 4.6 3.1 13.4-18.4-1.4c-.9 0-1.8.5-2.1 1.4l-1.4 4.6-.7 2.2-.7 2.1-2.7 8.8-15.3-10.4c-.8-.5-1.8-.4-2.5.2l-1 .9-2.1 1.9-2.2 2.1-8.2 7.7-8-16.7c-.3-.7-1-1.1-1.8-1.1h-.5l-6.6 1.5-4.9 1.1-6.5 1.5 1.1-14.8.2-2.8v-.8c0-.5 0-1.1-.4-1.4-.2-.3-.6-.5-.9-.6L8.9 196l10.4-15.3c.5-.8.4-1.8-.2-2.5L6.5 164.7l16.7-8c.8-.4 1.3-1.3 1.1-2.3l-4.2-18 7.9.6c6 5.7 13.1 10.7 21.1 14.6-.2 1.4 0 2.9.4 4.3 1.3 3.8 4.9 6.1 8.7 6.1h1.1l3.9 11.1-12.6-2.4c-.2-3.6-2.9-6.7-6.6-7.4-2.1-.4-4.3 0-6.1 1.3-1.8 1.2-3 3.1-3.4 5.2-.4 2.1 0 4.3 1.3 6.1 1.2 1.8 3.1 3 5.2 3.4.5 0 1 .1 1.5.1 1.6 0 3.2-.5 4.6-1.4 1.2-.8 2.2-2 2.8-3.3l12.6 2.4-8.6 10c-3.1-1.5-6.9-.8-9.2 1.9-1.3 1.6-2 3.6-1.8 5.6 0 1.1.4 2.1.8 3 .4.8 1 1.6 1.7 2.2l.1.1c.2.2.4.3.6.4 1.3.9 2.7 1.4 4.2 1.4h.3c.7 0 1.4-.1 2.1-.3.9-.3 1.8-.7 2.5-1.2.4-.3.9-.7 1.2-1.2.8-1 1.4-2.1 1.6-3.2.4-1.5.3-3-.2-4.4-.2-.6-.5-1.2-.9-1.7l8.6-10 2.7 7.7 1.3 3.6c-.2.1-.3.2-.5.3-2.3 1.7-3.7 4.3-3.7 7.2 0 1 .1 2.1.5 3.1.1.3.3.6.4.9 1.5 3.1 4.7 5 8 5s2-.2 3-.5c.8-.3 1.5-.6 2.1-1.1.8-.5 1.5-1.2 2-1.9.4-.5.7-1 1-1.6.6-1.3.9-2.7.9-4.1v-.9c0-.6-.2-1.3-.4-1.9 0-.1 0-.2-.1-.3-.2-.6-.5-1.1-.9-1.7-.9-1.3-2.1-2.4-3.6-3.1-.8-.4-1.7-.7-2.6-.8-.8-.1-1.5-.1-2.3 0l-1.2-3.3-2.8-8 13.3 2.5c.1 1.2.5 2.5 1.3 3.5 1.1 1.6 2.8 2.7 4.7 3.1.5 0 .9.1 1.4.1.6 0 1.3 0 1.9-.2 1.3-.3 2.5-1 3.4-2 .8-.8 1.4-1.8 1.7-2.9 0-.3.2-.6.2-.9.4-1.9 0-3.9-1.2-5.5-1.1-1.6-2.8-2.7-4.7-3.1-1.9-.4-3.9 0-5.5 1.2-1.1.7-1.9 1.7-2.4 2.8l-13.3-2.5 8.8-10.2c1 .5 2 .7 3.1.7h.6c.4 0 .7 0 1.1-.2 9.5 3 19.5 5.7 29 8.2 0 .3.2.6.4.8Zm-5.7 56.3c-5.2-1.5-10-3.9-13.9-7l1.5-4.8 19.5 1.5c.6 0 1.3-.2 1.7-.7s.6-1.1.4-1.8l-3.1-13.3c4.6 2 9.4 4.6 14.7 7.8.3.2.7.3 1 .3.7 0 1.3-.3 1.7-1 .6-.9.3-2.2-.7-2.7-6.5-3.9-12.4-6.9-17.9-9.2l-.2-1 14.6-7c22.3 11.9 30.5 39.3 32.5 47.9-7.8-.7-31.3-3.2-52-8.9Zm-79.1 56c-5.4-8.3-23.2-39-9.4-66.2 1.4-2.8 2.9-5.3 4.5-7.5l-.9 12.1c0 .6.2 1.3.7 1.7.5.4 1.1.6 1.8.4l6.5-1.5c-2 5.2-3.7 11.2-5.2 18-.2 1.1.4 2.1 1.5 2.4h.4c.9 0 1.7-.6 2-1.6 1.7-7.7 3.8-14.3 6-19.9l7.9-1.8 8.5 17.7c.3.6.8 1 1.4 1.1h.4c.5 0 1-.2 1.4-.5l5.9-5.5c-.7 2.3-1.7 4.5-2.9 6.7-10.5 19.2-25.4 38.3-30.3 44.4Zm38.7-114.2-3.9-11.1c.9-.6 1.8-1.3 2.4-2.2 3.2 1.2 6.5 2.3 9.9 3.5l-8.4 9.8ZM57 155.1c1.5.6 3 1.2 4.6 1.8-.4.4-.9.7-1.5.9-.7.2-1.4.3-2 .3-2-.1-3.9-1.4-4.6-3.5-.1-.4-.2-.8-.3-1.1 1.2.5 2.5 1.1 3.8 1.6Zm-10.3 16.8c-.1.7-.5 1.3-.9 1.9-.2.3-.5.5-.8.8-.9.6-2 .8-3.1.6-1.1-.2-2-.8-2.6-1.7s-.8-2-.6-3.1c.2-1.1.8-2 1.7-2.6.7-.5 1.5-.7 2.3-.7h.8c1.5.3 2.6 1.4 3.1 2.7.2.6.3 1.3.2 2.1Zm7.6 21.6c.1 1-.1 2.1-.8 2.9-1.1 1.3-2.8 1.6-4.3 1-.3-.1-.7-.3-1-.6-.8-.6-1.2-1.5-1.3-2.5 0-1 .2-1.9.9-2.7.6-.8 1.5-1.2 2.5-1.3h.8c.7 0 1.4.4 1.9.9.6.5.9 1.1 1.1 1.8 0 .2 0 .4.1.6Zm20.4 0c.6 0 1.2.2 1.8.5.2 0 .3.2.5.3 1 .6 1.7 1.5 2.1 2.5.1.3.2.7.2 1 .1.9 0 1.9-.4 2.7-.6 1.2-1.6 2.1-2.8 2.5-2.4.8-5-.3-6.1-2.5 0-.2-.2-.4-.3-.5-.4-1.3-.3-2.6.2-3.7.3-.6.6-1.1 1.1-1.5.5-.5 1.1-.8 1.7-1.1.5-.2 1.1-.3 1.6-.3h.4Zm12.1-14c.1-.7.5-1.4 1-1.8.6-.6 1.4-.9 2.3-.9h.6c1.8.3 3 2.1 2.7 4-.3 1.8-2.1 3-4 2.7-.9-.2-1.7-.7-2.2-1.4 0-.1-.2-.3-.2-.4-.3-.6-.4-1.4-.3-2.1ZM-6.6 44.2c3.7-1 7.7-2 12.1-2.9 2.7 1.1 15.5 6.4 25 15.7-6.9 3.6-12.6 8.8-16.4 15.2-.3.5-.6 1-.8 1.5-1.4-.9-2.7-1.8-3.9-2.8-9.1-7.1-14.9-16.7-16-26.7ZM55.7-5.3c51.6 1.7 87.1 27.8 103.3 42.8-3.1 4.6-6.7 10-11 16.4-11.5 4.6-26.3 10.3-41.4 15.5-1.3-.9-2.6-1.8-4-2.7C92.3 60 81.4 55.4 70.9 53.1c0-.4 0-.9-.2-1.3-3.6-6.5-12.4-12.6-18.1-16 13.8-.4 29.1 0 45.8 2 1.1.1 2.1-.7 2.2-1.8.1-1.1-.7-2.1-1.8-2.2-9.9-1.1-19.3-1.8-28.3-2 2.7-1.7 6.3-4.3 10.3-8.1.8-.8.8-2 0-2.8-.8-.8-2-.8-2.8 0-8.1 7.7-14.3 10.2-14.4 10.2-.3.1-.6.4-.8.6-11.4 0-21.9.6-31.5 1.6 4.4-3.8 10.4-9.9 15.6-18 .6-.9.3-2.2-.6-2.8-.9-.6-2.2-.3-2.8.6-7.6 12.1-17.8 19.6-19.8 21.1-6.7.9-12.8 2-18.3 3.2h-.1c-4.3.9-8.4 1.9-12 2.9 0-9.7 4.3-19.3 12-27.3C16.4 1.2 33.7-5.3 52.9-5.3h2.8Zm108.5 42.2c6.8-10.1 10.7-15.8 12.7-18.9 4.1 9.4 14.9 37.8 5.6 59.2-1.1 2.6-2.4 4.9-3.7 6.8-5.8-.1-10.7 1.4-14.8 4.5 4.4-8.2 8.5-20.7 13.1-39.4.3-1.1-.4-2.2-1.5-2.4-1.1-.3-2.2.4-2.4 1.5-5.8 23.3-10.9 37-16.3 44-1.3-.4-2.6-.9-4-1.4-3.8-1.7-7.1-5.7-8.5-10.6-1.3-4.5-1.7-11.6 4-20.1.7-1 1.4-2 2-3 .7-1 1.3-2 2-2.9.7-1 1.4-2 2-3 2.7-4 5.1-7.6 7.3-10.9.4-.6.8-1.2 1.2-1.7.4-.6.8-1.1 1.1-1.7Zm-151.8 3c9.5-1.7 20.5-3.2 32.7-3.9.1.1.3.2.4.3.2 0 14.9 7.7 20.6 15.8-8.5-1.3-16.7-1.2-24.2.6-2.7.6-5.2 1.4-7.6 2.4-7.1-7.4-16.1-12.5-21.9-15.3Zm191.3 155.3c-.2 5.9-4.6 12.8-7.1 16.2-2.2-3.6-6-10.9-5.7-16.8 0-1.6.3-3 .6-4.3 1.6-.9 2.9-2 3.9-3.3 0 0 0-.1.1-.2.8.2 1.5.3 2.3.3h1c1.1-.1 2.1-.4 3-.9 0 .1.2.2.3.4 1.3 1.9 1.9 4.8 1.7 8.6Zm-9.8-14.1c-.4-.6-.6-1.2-.7-1.9v-.4c0-1.1.3-2.2 1-3 .2-.3.4-.5.7-.7.3-.2.5-.4.8-.5.7-.3 1.4-.5 2.1-.5s1.3.1 1.9.4c.3.2.7.3 1 .6.1 0 .2.2.3.3 1.1 1.1 1.6 2.6 1.3 4.1-.1.6-.3 1.2-.7 1.8 0 .1-.1.2-.2.3-.8 1-1.9 1.6-3.1 1.7h-1.2c-.8-.1-1.5-.4-2.2-.9-.4-.3-.7-.7-1-1.2Zm33.8 8.8c-4.1 1-12.2 2.3-17.7.3-1-.4-2-.8-2.8-1.2-.4-1.8-1-3.3-1.9-4.5-.2-.3-.4-.5-.5-.7 1.3-1.7 1.8-3.9 1.6-6 0-.2 0-.5-.1-.7 2.7-.6 6 .3 8.3 1.1 5.5 2.1 10.7 8.4 13.2 11.8Zm-25.3-27.4c3.7-4.6 11.3-7.6 15.3-9-.4 4.2-1.6 12.3-5.2 16.9-.7.9-1.5 1.7-2.2 2.4-2.4-.3-4.3-.1-5.8.4-.4-.5-.9-1-1.4-1.4-1.3-1-2.8-1.6-4.4-1.8.2-2.8 2.1-5.7 3.6-7.6Zm-22.5-11.2c3.9 1.7 11.2 5.3 14.5 10.2.7 1.1 1.3 2.2 1.8 3.2-1.1 2.3-1.5 4.2-1.5 5.9-1.4.5-2.7 1.4-3.7 2.7-.3.4-.6.8-.8 1.3-2.1-.8-4.3-2.8-6.4-5.9-3.3-4.9-3.8-13.1-3.8-17.3Zm1.1 25.3c1.3-.4 2.5-.6 3.6-.7 1.3 1.2 2.7 2 4.1 2.5.1 0 .3 0 .4.1v1.2c.2 2 1.2 3.9 2.7 5.3-1.4 1.7-4 3.1-7.4 4-5.7 1.6-13.6-.5-17.6-1.8.5-.5 1-1.1 1.6-1.8h.4c.5 0 .9-.2 1.2-.4.5-.4.7-.9.7-1.5v-.6c2.9-2.7 6.5-5.4 10.1-6.4Zm-42.9-78.5c-7.3-8.8-16.4-17.7-27.6-25.9 12-4.2 23.8-8.6 33.6-12.5-4.2 7.1-5.4 14.8-3.4 21.7 1.8 6 5.9 11 10.7 13.1.2 0 .4.1.5.2-4.8 1.3-9.4 2.5-13.9 3.4Zm135.8 6.8c-8-11.7-18.2-20.1-26.5-25.9 2.6-1.6 5.7-2.8 9-2.8h1.1c4.8.4 9.4 3.4 13.6 8.9 14.8 19.7 14.7 44 14 52.8-4.4-3.3-14.6-11.4-35.7-29.3-6.6-5.6-10.3-11.8-10.4-17.4 0-3.2 1-6 3.1-8.1.6-.6 1.2-1.2 1.9-1.7 8.3 5.5 18.5 13.7 26.6 25.6.4.6 1 .9 1.7.9s.8-.1 1.1-.3c.9-.6 1.1-1.9.5-2.8Zm-49.4-31.8c-2.3.2-4.5-.2-6.4-1.1-1.4-.6-2.7-1.5-3.8-2.6-.9-1-1.7-1.9-2.5-2.9 5.7-9.6 15.4-21.6 34.2-29.7 1-.4 1.5-1.6 1-2.6-.4-1-1.6-1.5-2.6-1-18.8 8.1-28.9 19.8-35 29.6-1.3-2.5-1.9-4.9-2-7.4 0-5.5 3.1-11.4 9.3-17.3 13.5-12.9 35.9-15 49-15s4.5 0 6.1.2c-4.3 4.7-13.4 15.4-30.3 38.6-1.2 1.6-2.5 3.1-3.8 4.4-4.1 4.1-8.8 6.5-13.4 6.8Zm-17.4 2.4c.8-1.5 1.6-3.3 2.6-5.2.5.6 1.1 1.3 1.7 1.9.5.5 1 1 1.6 1.4-2 .6-3.9 1.3-5.9 1.9Zm219.3 81.9c-6.6-11.3-14.6-19.2-23-24.8.7 0 1.4-.1 2.1-.1 5.1 0 10.8 2.2 17.2 6.5 20 13.6 26.7 43.8 28.7 55.8-5.5-3.9-17.8-11.2-44.8-23.2-10.2-4.5-17.5-11.6-19.6-18.9-1-3.5-.6-6.7 1-9.1 3.2-4.6 6.6-7.8 10.3-9.6 9.1 5.4 17.6 13.3 24.7 25.4.4.6 1 1 1.7 1s.7 0 1-.3c1-.6 1.3-1.8.7-2.7Zm-60.9-55.3c-7.2-6.6-9.6-15.7-9.5-21.9 1.7.5 3.6.8 5.5.8 2.8 0 5.4-.6 7.9-1.7 4.8 5.1 10.2 11 16.1 18 .4.5 1 .7 1.5.7s.9-.2 1.3-.5c.8-.7.9-2 .2-2.8-5.7-6.7-10.9-12.5-15.6-17.4 2.3-1.7 4.2-3.8 5.6-6.3.5-.8.8-1.7 1.2-2.5.3 0 .6.2.9.2 3.9 1.1 8.4 3.4 11.9 8v.1s.1.2.2.2c.4.5.8 1.1 1.1 1.7 1.8 3 3.5 5.9 5.1 8.8 7.1 12.7 12.1 23.7 14.2 28.7-8.7-.2-34.3-1.9-47.6-14.1Zm-49 0c0 5-4.1 9.1-9.1 9.1s-9.1-4.1-9.1-9.1 1-4.7 2.6-6.3c.5-.6 1.2-1 1.8-1.5.8-.5 1.8-.9 2.8-1.1.6-.1 1.3-.2 2-.2 2.8 0 5.3 1.3 7 3.2.7.8 1.2 1.6 1.5 2.6.3.7.5 1.5.6 2.3v1.1Zm3.3-4.2c-1.8-5.2-6.7-8.9-12.4-8.9s-5.2.8-7.3 2.2c-.7-.3-1.4-.5-2.1-.8-11.7-4.7-18.1-12.8-20.2-18.8-1.1-3.3-1.1-6.3 0-8.4.2-.4.5-.8.7-1.2h.4c6.8 0 18.3 0 38.1 16.2.4.3.8.4 1.3.4s1.2-.3 1.6-.7c.7-.9.6-2.1-.3-2.8-10.7-8.7-19.1-12.9-25.8-15-5.1-1.6-9.1-1.9-12.4-2 .3-.3.5-.6.8-.8 4.8-4.7 11.6-6.2 23.3-1.9 1.2.4 2.4.9 3.7 1.5 1.7.7 3.3 1.5 4.9 2.4 21.2 12 28.3 36.8 30.2 45.2-4.6-1-13.9-3.3-24.6-6.5Zm4-73.5c-5.1 3.2-8.3 7-9.9 11.6-5.4 0-9.8-4.5-9.8-9.9s4.5-9.9 9.9-9.9 9 3.6 9.8 8.2Zm.5 33.3c-1.3-.7-2.4-1.5-3.4-2.4-1.6-1.5-2.7-3.4-3.2-5.5-.3-1.1-.5-2.3-.7-3.5 9.4-5.2 22.3-10.8 37.8-11.9 1.1 0 1.9-1 1.8-2.1 0-1.1-1-1.9-2.1-1.8-15.4 1.1-28.2 6.4-37.8 11.5 0-.8.1-1.5.2-2.3.1-.7.3-1.5.6-2.2.3-.9.7-1.8 1.2-2.7 1-1.8 2.5-3.5 4.5-5.2.8-.6 1.6-1.2 2.5-1.8l2.1-1.2c2.3-1.2 4.9-2.3 8.1-3.4C343 20.9 350 20 356.7 20c17 0 31.4 5.7 37 8.3-3.3 3.1-10.9 9.4-22.6 16.3-2.9-1.7-6.2-2.6-9.8-2.6-9.3 0-17.1 6.6-19 15.3 0 .3-.1.6-.2.9-7 2.1-13.3 1.9-18-.5Zm21.7 3.8v-.3c0-.8 0-1.5.2-2.2 0-.3.1-.7.2-1 .1-.5.2-.9.4-1.4 2.1-6.2 7.9-10.6 14.7-10.6s3.8.4 5.5 1c.8.3 1.5.7 2.2 1.1.7.4 1.3.8 1.9 1.3 3.6 2.8 5.9 7.2 5.9 12.1s0 1.6-.2 2.3c-.1.7-.2 1.3-.4 2v.1c-.2.6-.4 1.2-.7 1.8-.3.6-.6 1.3-1 1.9-1.2 1.9-2.7 3.5-4.6 4.8-1.2.8-2.4 1.4-3.8 1.8-1.5.5-3.1.8-4.8.8s-3.4-.3-5-.8c-.6-.2-1.3-.5-1.9-.8-.6-.3-1.2-.6-1.8-1-4-2.7-6.6-7.2-6.8-12.4v-.5ZM398.1 78h.1c2.3.4 4.6.7 7 .9 2.3.2 4.9.3 7.9.3 8 0 18-1.1 28.5-4.8 1-.4 1.6-1.5 1.2-2.6-.4-1-1.5-1.6-2.6-1.2-16.6 5.9-32.9 5.3-44.2 2.8-.2-1.4-.3-2.8-.3-4.4 0-4 2.4-8.4 6.2-11.3 2.4-1.8 6.1-3.7 11.3-3.7s4.5.3 7.1 1c3.3.9 6.4 1.7 9.3 2.4 1.8.4 3.5.8 5.1 1.2.2 0 .4 0 .6.1l4.2.9c15.1 3.2 23.9 3.9 28.5 3.8-5.6 7.8-22.2 26.9-49.4 25.9-7.4-.3-12.9-1.8-16.7-4.8-1.3-2.2-2.6-4.5-3.9-6.8Zm34.8-44c-.2-.4-.3-.8-.4-1.2 0-.9.1-1.8.7-2.6.2-.3.5-.5.8-.7.5-.3 1-.5 1.5-.6h.4c.6 0 1.2.2 1.8.5.1 0 .3.2.4.3 1.2.9 1.6 2.5 1.2 3.8 0 .2-.2.5-.3.7 0 .2-.2.3-.3.5-.7.9-1.9 1.4-3 1.3-.7 0-1.4-.3-2-.8-.4-.3-.7-.7-1-1.2Zm27.8 7.6c-3.6.8-9.9 1.8-14.3.1-.8-.3-1.5-.6-2.2-1-.4-1.4-.9-2.7-1.6-3.8-.1-.2-.2-.3-.3-.4 1.1-1.6 1.5-3.5 1.2-5.4 2.1-.4 4.7.3 6.5 1 4.4 1.6 8.5 6.5 10.7 9.4Zm-8.3-29.9c-.4 3.6-1.4 9.9-4.3 13.6-.6.7-1.1 1.3-1.7 1.9-1.9-.2-3.4 0-4.7.3-.3-.4-.7-.7-1.1-1-1-.8-2.2-1.3-3.5-1.5.3-2.2 1.8-4.4 3-6 2.9-3.7 8.8-6.1 12.3-7.3Zm-31.1-1.9c3.3 1.5 9 4.4 11.6 8.3.6.9 1.1 1.7 1.4 2.5-.9 1.8-1.2 3.4-1.2 4.8-1.2.5-2.2 1.3-3 2.3l-.6.9c-2.1-.8-3.9-3.1-5.1-4.8-2.6-3.9-3.1-10.3-3.1-13.9Zm3.5 30.9c-4.5 1.3-10.7-.2-14.2-1.3 2.4-2.7 7-7.2 11.5-8.5 1-.3 2-.5 2.9-.6 1.3 1.1 2.5 1.7 3.6 2.1 0 1.9.8 3.8 2.2 5.2-1.2 1.3-3.2 2.3-5.9 3.1Zm5.7 5.2c0-1.3.2-2.4.4-3.4 1.3-.8 2.4-1.7 3.2-2.8.6.2 1.2.3 1.8.3 1.1 0 2.2-.2 3.2-.7 1 1.5 1.5 3.9 1.4 7-.1 3-1.5 6.3-3.1 9.1-1.7-.4-3.4-.8-5.2-1.2-1.1-2.7-2-5.6-1.9-8.3Zm-117.1 2.5c.1.8.3 1.5.5 2.3.4 1.6 1 3.1 1.9 4.4h-.5c-1.4-.7-2.8-1.5-4.3-2.1-1.1-.5-2.1-.9-3.1-1.2 1.6-1 3.5-2.2 5.5-3.4ZM483.5 42c6.9 0 12.5-5.6 12.5-12.5S490.4 17 483.5 17 471 22.6 471 29.5 476.6 42 483.5 42Zm0-21c4.7 0 8.5 3.8 8.5 8.5s-3.8 8.5-8.5 8.5-8.5-3.8-8.5-8.5 3.8-8.5 8.5-8.5Z"/><path d="M359 152.7c-.3-.2-.7-.4-1-.6.3-.3.7-.5 1-.8 7.3-6.2 10.4-19.9 10.5-20.4.1-.6 0-1.2-.4-1.7s-1-.7-1.6-.7c-.6 0-14.6.7-21.9 6.9-.3.2-.5.4-.7.6-.2-.5-.4-1.1-.6-1.6-3.6-8.9-15.7-16-16.2-16.3-.5-.3-1.2-.4-1.8-.1-.6.2-1 .7-1.2 1.3-.2.6-3.8 14.1-.2 23 .2.6.5 1.1.7 1.7h-1.5c-9.6.7-20.1 9.9-20.5 10.3-.5.4-.7 1-.7 1.6 0 .6.4 1.2.9 1.5.5.3 11.3 7.3 20.6 7.3h1.2c.5 0 1.1 0 1.6-.2l-.6 2.1c-2.3 9.3 3.3 22.2 3.5 22.7.2.6.7 1 1.4 1.1h.5c.4 0 .9-.2 1.2-.4.5-.4 11.4-9.2 13.7-18.5.2-.6.3-1.2.4-1.8.3.2.5.3.8.5 5.3 3.3 13.1 3.9 18 3.9 2.6 0 4.5-.2 4.7-.2.6 0 1.2-.4 1.5-.9.3-.5.4-1.2.2-1.8-.2-.6-5.2-13.7-13.4-18.7Zm-10.9-14.3c4.5-3.8 12.6-5.2 16.8-5.7-1.2 4.1-4 11.8-8.5 15.6-.9.8-1.8 1.4-2.6 1.9-2.2-.8-4.2-.9-5.8-.8-.3-.6-.6-1.1-1.1-1.6-1.1-1.3-2.4-2.1-3.9-2.6.6-2.1 2.3-4.5 5.1-6.8Zm-12.3 14.5v-.4c.2-1.1.7-2 1.5-2.7.2-.2.5-.4.8-.5.3-.1.6-.3.9-.3.4-.1.9-.2 1.3-.2.9 0 1.9.3 2.7.9.3.2.6.5.8.8 0 .1.2.2.2.4.9 1.3 1 2.9.5 4.2-.2.6-.6 1.2-1.1 1.6 0 0-.2.2-.2.3-1.1.9-2.4 1.2-3.7 1-.3 0-.6-.1-.9-.2-.7-.3-1.4-.7-1.9-1.3-.3-.4-.6-.9-.8-1.3-.2-.6-.4-1.3-.3-2Zm-7.5-30c3.5 2.4 10 7.4 12.2 12.9.5 1.2.9 2.4 1.1 3.5-1.3 1.7-2.2 3.5-2.6 5.2v.3c-1.5.2-2.9.9-4.2 1.9-.4.3-.7.7-1.1 1.1-2.5-1.5-4.2-4.7-5.2-7.1-2.2-5.5-1.1-13.6-.3-17.7Zm-3 37.8c-5.9.4-13.2-3.2-16.9-5.2 3.4-2.6 10.1-7.2 16-7.6h3.7c1.3 1.7 2.6 2.8 3.9 3.5 0 .4-.2.8-.2 1.2-.2 2.1.4 4.1 1.6 5.7-2.2 1.7-5.6 2.3-8.1 2.5Zm17.6 10c-1.4 5.7-7.1 11.6-10.2 14.5-1.4-4-3.7-11.9-2.3-17.6.4-1.5.9-2.9 1.4-4.1 2-.7 3.5-1.6 4.6-2.6 1.2.6 2.6 1 4 1s1.6-.1 2.4-.3c1.4 2.7.8 6.5.2 9.2Zm7.2-3.7c-.9-.6-1.7-1.2-2.5-1.8 0-2.4-.6-4.2-1.4-5.6 1.8-1.7 2.7-4 2.7-6.3 2.8 0 5.8 1.5 7.9 2.8 5 3.1 8.9 10.3 10.6 14.2-4.2.1-12.4-.1-17.4-3.3ZM120 148c0 .9 0 1.8.2 2.6.1.8.3 1.5.5 2.2.2.8.6 1.6.9 2.4.3.6.6 1.2 1 1.7.4.6.8 1.2 1.2 1.7.4.5.9 1 1.4 1.5 3.1 2.9 7.2 4.8 11.8 4.8 9.4 0 17-7.6 17-17s-7.6-17-17-17-17 7.6-17 17Zm17-13c7.2 0 13 5.8 13 13s-5.8 13-13 13-7.1-1.6-9.5-4.1c-.5-.5-.9-1-1.3-1.6-.2-.3-.4-.6-.5-.8-.4-.8-.8-1.6-1.1-2.4-.4-1.3-.6-2.6-.6-4 0-7.2 5.8-13 13-13Zm-39.1-3.3c-.7-.6-1.5-1.1-2.3-1.5-1.2-.6-2.6-1-4-1.1h-1.1c-.8 0-1.6 0-2.4.3-.7.1-1.3.3-1.9.6l-1.8.9c-3.2 2-5.4 5.6-5.4 9.7s2.2 7.8 5.5 9.8c.6.3 1.1.6 1.7.9 1.3.5 2.7.8 4.2.8 6.3 0 11.5-5.2 11.5-11.5s-1.6-6.7-4.1-8.8ZM90.5 148c-4.1 0-7.5-3.4-7.5-7.5s1.5-5.2 3.7-6.5c1.1-.7 2.4-1 3.8-1s.9 0 1.3.1c3.5.6 6.2 3.7 6.2 7.4s-3.4 7.5-7.5 7.5Zm431-109c-5.8 0-10.5 4.7-10.5 10.5S515.7 60 521.5 60 532 55.3 532 49.5 527.3 39 521.5 39Zm0 17c-3.6 0-6.5-2.9-6.5-6.5s2.9-6.5 6.5-6.5 6.5 2.9 6.5 6.5-2.9 6.5-6.5 6.5Zm30-25c4.7 0 8.5-3.8 8.5-8.5s-3.8-8.5-8.5-8.5-8.5 3.8-8.5 8.5 3.8 8.5 8.5 8.5Zm0-13c2.5 0 4.5 2 4.5 4.5s-2 4.5-4.5 4.5-4.5-2-4.5-4.5 2-4.5 4.5-4.5Zm-266 1c4.7 0 8.5-3.8 8.5-8.5S290.2 2 285.5 2s-8.5 3.8-8.5 8.5 3.8 8.5 8.5 8.5Zm0-13c2.5 0 4.5 2 4.5 4.5s-2 4.5-4.5 4.5-4.5-2-4.5-4.5 2-4.5 4.5-4.5Zm-40 191c-4.7 0-8.5 3.8-8.5 8.5s3.8 8.5 8.5 8.5 8.5-3.8 8.5-8.5-3.8-8.5-8.5-8.5Zm0 13c-2.5 0-4.5-2-4.5-4.5s2-4.5 4.5-4.5 4.5 2 4.5 4.5-2 4.5-4.5 4.5ZM78 269c6.6 0 12-5.4 12-12s-5.4-12-12-12-12 5.4-12 12 5.4 12 12 12Zm0-20c4.4 0 8 3.6 8 8s-3.6 8-8 8-8-3.6-8-8 3.6-8 8-8Zm-19.5 32c-4.7 0-8.5 3.8-8.5 8.5s3.8 8.5 8.5 8.5 8.5-3.8 8.5-8.5-3.8-8.5-8.5-8.5Zm0 13c-2.5 0-4.5-2-4.5-4.5s2-4.5 4.5-4.5 4.5 2 4.5 4.5-2 4.5-4.5 4.5Zm12.4 19.9c-21-.9-33.8 4.6-38 16.5-10.4 3.3-21.9 8.5-34.9 15.9-1 .6-1.3 1.8-.7 2.7.2.4.6.7 1 .8.5.4 1.2.5 1.9.3 6-2.2 13.4-4.9 23.5-3.7-.3.4-.5.7-.8 1.1-2.2 3.2-2.7 7.6-1.5 12.5 1.9 7.6 8.8 18.2 22.3 25 23.9 12 52.5 20.6 52.8 20.7h.6c.4 0 .9-.1 1.2-.4.5-.4.8-1 .8-1.7 0-1.4-1.7-25.9-17.1-45.4 35.8-1.3 56.2 2.9 56.4 2.9h.4c.6 0 1.2-.3 1.6-.8.5-.6.5-1.5.1-2.2-.2-.4-23.8-42.3-69.7-44.3Zm-25.4 67.5C33.2 375.2 27 365.8 25.2 359c-1-3.7-.6-7 .9-9.2.6-.9 1.3-1.8 2-2.6 2.9.6 6 1.6 9.3 2.9 4.2 1.7 8.7 4 13.6 7.1 5.1 3.2 10.6 7.3 16.6 12.5.4.3.8.5 1.3.5s1.1-.2 1.5-.7c.7-.8.6-2.1-.2-2.8-3.5-3-6.8-5.6-10-8-1.1-.8-2.3-1.6-3.4-2.4-1.5-1-3-2-4.4-2.9-4.5-2.8-8.7-4.9-12.6-6.6-1.3-.5-2.5-1-3.7-1.5-1-.3-1.9-.7-2.8-.9-.7-.2-1.3-.4-2-.6.4-.4.9-.7 1.3-1 .6-.4 1.1-.8 1.7-1.1l1.8-.9c1.9-.7 3.9-1.1 6.3-1.1 4.9 0 10.9 1.8 18.6 5.9 4.7 2.5 8.7 5.5 12.2 8.9l1.9 1.9c.6.6 1.2 1.3 1.7 1.9 13.2 15.3 17 35.1 17.9 42.5-7.8-2.5-30-9.9-49.2-19.5ZM63 342.2c-11.2-6-20.1-7.8-27.4-5.2 0-.7 0-1.3.2-2 0-.5.2-1 .3-1.4 12.9-3.9 24.7-5.3 35.4-4.1 16.8 1.9 27.8 9.7 35.9 15.4l1.4 1c.9.6 2.2.4 2.8-.5.6-.9.4-2.2-.5-2.8l-1.4-1c-12.5-8.8-33.2-23.5-71.7-12.8 4.7-8.1 15.4-11.7 32.7-10.9 35.7 1.6 57.2 28.5 64 38.6-6.4-1-19.6-2.5-38.7-2.5s-11.1.1-17.3.4c-4.3-4.6-9.5-8.8-15.7-12.1Zm-49.3.3c6.2-3 12.2-5.5 18-7.5-.2 1.3-.2 2.6 0 3.8-1.8 1.1-3.4 2.4-5 4.1-4.8-.8-9.1-.9-13-.4ZM597.4 44.7c1.4.8 2.9 1.3 4.6 1.3 3.5 0 6.6-2.1 8.1-5 .6-1.2.9-2.5.9-4s-.1-1.7-.4-2.5c-1.1-3.7-4.5-6.5-8.6-6.5s-9 4-9 9 .5 3.5 1.5 4.9c.7 1.1 1.7 2.1 2.9 2.8Zm2.9-12.4c.5-.2 1.1-.3 1.7-.3h.8c2.4.4 4.2 2.4 4.2 4.9s-2.2 5-5 5-1.4-.2-2.1-.5c-1.3-.6-2.3-1.7-2.7-3.1-.1-.4-.2-.9-.2-1.4 0-2.2 1.4-4 3.3-4.7ZM722.8 26c-.5-.2-1-.4-1.6-.5-.1 0-.3 0-.4-.1h-.5c-.4 0-.8 0-1.1-.1h-.9c-.7 0-1.3.1-2 .3-3.8.9-7 4-7.8 8.1-.6 2.9.1 5.9 1.8 8.1.4.6.8 1.1 1.3 1.5.4.3.8.7 1.2 1 .1 0 .3.2.4.3 1 .6 2.1 1.1 3.3 1.3h.2c.7.1 1.4.2 2.1.2 1.3 0 2.6-.3 3.8-.7.6-.2 1.2-.6 1.8-.9.3-.2.5-.4.8-.6.3-.2.5-.4.8-.7.8-.8 1.5-1.7 2.1-2.7.4-.8.8-1.7 1-2.7.3-1.5.3-3.1 0-4.5-.4-1.6-1.1-3-2.1-4.2-1-1.2-2.2-2.1-3.6-2.8-.1 0-.2-.1-.3-.1Zm2.2 10.9c-.2.9-.5 1.7-1 2.4-.4.6-.9 1.1-1.5 1.5-.5.4-1.1.7-1.8.9-.9.3-1.8.4-2.8.3h-.5c-.7-.1-1.4-.4-2-.7l-1.2-.9-.4-.4c-.5-.6-.9-1.2-1.2-1.9-.4-1.1-.6-2.4-.3-3.6.4-2.1 1.9-3.8 3.7-4.6.5-.2 1.1-.4 1.7-.5h.8c.4 0 .8 0 1.3.1h.2c.6.1 1.1.3 1.6.6 0 0 .2.1.3.2 2.2 1.4 3.4 4 2.9 6.7Zm8.9 75.6c-2.4-2.7-6-3.7-9.4-2.8-2.2-2.7-5.8-4-9.4-3.3-3.5.8-6.2 3.4-7.2 6.7-3.4.6-6.3 3-7.4 6.5-1.1 3.5-.2 7.1 2.3 9.6-1.2 3.3-.5 7 1.9 9.7 2.4 2.7 6 3.7 9.4 2.8 1.8 2.1 4.4 3.3 7.2 3.3.7 0 1.3 0 2-.2 3.4-.7 6.1-3.3 7.1-6.6 3.5-.5 6.5-3 7.6-6.5 1.1-3.5.2-7.1-2.3-9.6 1.2-3.3.5-7-1.9-9.7Zm.3 18c-.8 2.3-2.9 3.9-5.4 3.8-1 0-1.9.7-2 1.8-.3 2.4-2 4.3-4.3 4.8s-4.7-.5-5.9-2.6c-.4-.6-1-1-1.7-1s-.6 0-.8.2c-2.2 1-4.8.5-6.4-1.3-1.6-1.8-1.9-4.4-.7-6.5.5-.9.3-2.1-.6-2.7-2-1.4-2.8-3.9-2.1-6.2.7-2.3 2.8-3.8 5.2-3.8 1 0 1.9-.8 2-1.8.2-2.4 2-4.4 4.3-4.9 2.4-.5 4.8.6 6 2.7.5.9 1.6 1.3 2.6.8 2.2-1 4.8-.5 6.4 1.3 1.6 1.8 1.9 4.4.7 6.5-.5.9-.3 2.1.6 2.7 2 1.4 2.8 3.9 2.1 6.2Z"/><path d="M721.7 118.8c-3.8-1.4-8 .6-9.3 4.4-1.4 3.8.6 8 4.4 9.3.8.3 1.7.4 2.5.4s2.1-.2 3.1-.7c1.8-.8 3.1-2.3 3.8-4.1 1.4-3.8-.6-8-4.4-9.3Zm.6 8c-.3.8-.9 1.5-1.7 1.9-.8.4-1.7.4-2.5.1-1.7-.6-2.6-2.5-2-4.2.5-1.3 1.7-2.2 3.1-2.2s.7 0 1.1.2c.8.3 1.5.9 1.9 1.7s.4 1.7.1 2.5Z"/><path d="M874.5 37c-6 0-11.3 2.7-14.9 6.9-1.4-2.6-2.8-5.3-4.4-7.9-7.2-12.2-19.7-21.2-32.6-23.6-7.6-1.4-14.2-.2-18.8 3.4-.4.3-.7.6-1.1 1-20-12.8-37-12.1-39.9-11.9h-.3c-3.3-2.9-6.7-5.1-10-6.8-1-.5-2.2-.1-2.7.8-.5 1-.1 2.2.8 2.7 8.7 4.5 18.3 13.1 25.2 29.1-3.5 1.6-6.8 4.4-9.6 8.1-9.7-9.4-17.3-15.6-23.7-18.9-.7-2.9-2.3-5.6-4.7-7.6-4.3-3.5-10.1-4.2-15-1.8-1.1-1.2-2.4-2.1-3.8-2.8h-.1c-1.3-.6-2.6-1-4-1.1-2.2-.3-4.5 0-6.7.8-3 1.1-5.5 3.2-7.1 5.8-9.4 1.6-21.7 8.4-36.5 20.5-3.2-2.2-7-4.4-11.5-6.1-6.9-2.7-15.1-2.2-21.5 1.4-1.9 1-3.5 2.3-4.7 3.7-1.1-3.1-3.5-5.7-6.6-7 .2-4.5-2.2-8.8-6.3-11-4.1-2.2-9-1.8-12.7.9-3.9-2.5-8.8-2.6-12.8 0-4 2.5-6.1 6.9-5.5 11.4-4 2.1-6.5 6.3-6.4 11 0 1.3.3 2.5.7 3.7-5.7-1.5-12.1-.9-17.5 1.6-16 7.6-23.2 20.5-23.5 21-.5.9-.2 2 .6 2.6.5.3 10.7 7.1 25.3 7.1s2.3 0 3.4-.1c-12.7 22.3-11.2 43.5-11.2 44.4 0 1 .9 1.8 2 1.8 1.8 0 24.7-.4 44.6-17.3 2.8-2.4 5.3-5.2 7.4-8.3 11.1-1.8 24.4-4.6 38.6-9.3v.4c0 8.7 5.8 16.1 13.7 18.6-4.9 8.4-9.3 15.2-13.1 20.5-9.5 13.4-16.2 19.9-16.3 20v.1l-.1.1s0 .1-.1.2v2.1l.1.1.1.1s.2.1.2.2h.1s.2 0 .3.1h1.1c.1 0 .2 0 .3-.1.5-.2 46.7-23.7 78.3-68.2 2.1-2.9 3.9-5.8 5.7-8.7 20.6 26.3 47.5 40.8 47.8 40.9.3.2.6.2.9.2.6 0 1.2-.3 1.6-.8.6-.8.5-1.9-.1-2.6 0 0-4.8-5.1-10.9-15.6-3.1-5.3-6.9-12.6-10.7-21.9 2.8 2.2 5.8 4.3 8.9 6.4 1.5 1 2.9 1.9 4.4 2.8 9.6 30.7 30.7 47.2 31.6 47.9.4.3.8.4 1.2.4s1.1-.2 1.5-.7c.5-.6 8.9-9.9 14.8-25.4 25.1 8.1 44.1 9.9 44.4 9.9h.2c.9 0 1.7-.6 1.9-1.5.2-1-.3-2-1.2-2.3 0 0-8.7-3.6-22.4-12.7-5-3.3-11-7.5-17.9-12.9.4-3.1.7-6.3.8-9.6v-1c22.3 17.5 52.1 18.5 58.6 18.5h1.2c.6 0 1.1-.3 1.5-.7.4-.4.5-1 .4-1.6 0-.4-.9-5.2-3.2-12.7h1.7c10.8 0 19.5-8.7 19.5-19.5s-8.7-19.5-19.5-19.5Zm0 35c-1 0-2.1-.1-3.1-.3-.8-.2-1.6-.4-2.4-.7-.9-.3-1.8-.8-2.6-1.2-4.5-2.7-7.5-7.6-7.5-13.3s.2-2.6.5-3.8c.2-.9.6-1.8.9-2.7.3-.7.7-1.5 1.2-2.1 2.8-4.1 7.5-6.9 12.9-6.9 8.5 0 15.5 7 15.5 15.5s-7 15.5-15.5 15.5Zm-60.1-4.6c-.1-.1-.3-.2-.4-.4-.8-.7-1.6-1.4-2.3-2.2-.9-.9-1.8-1.9-2.6-2.9-4.6-5.8-7.2-12.2-8.4-18.2-.3-1.3-.5-2.6-.6-3.9-.1-1.1-.2-2.1-.2-3.1v-1.8c.1-5.2 1.4-9.7 3.5-13 3.9 2.7 7.7 5.8 11.3 9.3-.1.3-.2.7-.1 1 0 .2 2.7 16.6 2.4 23 0 1.1.8 2 1.9 2.1 1.1 0 2-.8 2-1.9.2-4.8-1-14.3-1.8-19.7 6.6 7.1 12.6 15.4 18 25 .4.7 1 1 1.7 1s.7 0 1-.3c1-.5 1.3-1.8.8-2.7-3.1-5.5-6.4-10.5-9.6-15 3 .3 8.8 1 16.4 2.9h.5c.9 0 1.7-.6 1.9-1.5.3-1.1-.4-2.2-1.5-2.4-12.1-3-19.5-3.2-19.8-3.2-.2 0-.5 0-.7.1-7.3-9.1-14.7-15.9-21.8-20.9 0 0 .1 0 .2-.1 2.6-2 6.1-3.1 10.3-3.1s3.4.2 5.2.5c9.2 1.7 21.9 8.3 29.9 21.7 2 3.3 3.7 6.6 5.4 9.7-1.3 2.6-2.1 5.6-2.1 8.7 0 8.6 5.6 15.8 13.3 18.5 1.7 5.4 2.7 9.6 3.3 12-8.4-.2-37.1-2.2-57.1-19.6Zm-4.1 6c0 2.3-.2 4.5-.5 6.7 0 .8-.2 1.6-.3 2.4-.1.8-.2 1.6-.4 2.3-.8 4.5-1.9 8.8-3.2 12.7-.2.7-.4 1.3-.7 1.9-.2.6-.5 1.2-.7 1.8-4.4 11.4-10.2 19.4-12.6 22.5-4.6-4-19.1-17.9-27.3-40.3-.3-.9-.7-1.9-1-2.9-.2-.7-.4-1.3-.6-2 0-.3-.1-.6-.2-.8-3.6-12.7-.4-24.8 4.1-32.6.3-.6.7-1.1 1-1.7.4-.6.8-1.1 1.2-1.7 2.5-3.3 5.3-5.8 8.3-7.2 1.7 4.4 3.1 9.2 4.3 14.6-.1.3-.7 1.8-1.7 3.9-.3.6-.6 1.3-.9 2-.3.6-.6 1.3-.9 2-2.1 4.7-4.8 10.2-6.7 12.9-.6.9-.4 2.2.5 2.8.3.2.7.4 1.1.4.6 0 1.3-.3 1.7-.9 1.9-2.7 4.3-7.7 6.4-12.2.3-.7.6-1.3.9-1.9.3-.7.6-1.3.9-2 .2 1.1.4 2.2.5 3.4.2 1.1.3 2.1.4 3.2.8 6.8 1.4 14.3 1.4 22.6 0 1.1.9 2 2 2s2-.9 2-2c0-5.4-.3-10.5-.7-15.3 2.4 2.9 5.7 6.3 9.8 9.2.4.2.8.4 1.2.4.6 0 1.2-.3 1.6-.8v-.1c.5-.9.3-2.1-.5-2.7-3.7-2.7-6.8-5.9-9.1-8.6-2-2.4-3.3-4.4-3.8-5.1 0-.5-.1-1-.2-1.4-1.4-10.8-3.8-19.9-6.6-27.5.2 0 .5 0 .7-.1h1.3c4.1 0 8.5 2 12.7 5.7.7 11.2 5.9 22.4 14.1 30.3 0 1.4.2 2.9.1 4.4Zm-.4 25.3c1.1-3.5 2.2-7.2 2.9-11.2 11.7 9 21.4 15.2 28.3 19-7.8-1.4-18.7-3.9-31.2-7.9Zm-52.6-24.6c-5.1-3.3-9.8-6.9-14.1-10.7-1.1-1-2.1-1.9-3.1-2.9-1.1-1-2.1-2.1-3.1-3.1l-.3-.3s0-.2.1-.2c.5-1 .9-2 1.1-3.1.1-.6.3-1.3.3-1.9.4 0 .7-.2 1.1-.3 4.8-1.6 8.5-5.8 9.3-10.9.9-5.5-1.5-10.9-6.1-13.9.2-.7.3-1.3.4-2 5.7 3.4 12.6 9.2 21.1 17.5-5.8 9.4-8 21.4-6 32.5-.3-.2-.5-.3-.8-.5Zm-37.5-7c.5-1 1-1.9 1.5-2.8 1 .2 1.9.3 2.9.3 1.6 0 3.3-.3 4.9-.9 1.9-.7 3.6-1.8 5-3.2 1.7 1.8 3.6 3.6 5.6 5.4 6.4 17.3 13.4 29.4 18.4 36.8-9.7-6.5-25.4-18.6-38.3-35.5Zm-4.8.3c-1.9 3.3-4 6.6-6.3 9.8-17.8 25-40.2 43.2-56.2 54.3C682 104.3 699 80 708.7 62c.8 0 1.6-.1 2.4-.3.7-.1 1.4-.3 2-.6.5-.2.9-.4 1.4-.6.5.4.9.8 1.4 1.2.5.4 1 .7 1.5 1-.1.2-.2.5-.4.7-.3.7-.7 1.3-1.1 2-.4.6-.7 1.3-1.1 1.9ZM602.8 95.2c-1.3 1.5-2.7 3-4.4 4.4-15.9 13.6-34.2 15.9-40.1 16.3 0-5.8.8-23.8 11.7-41.8.2-.4.4-.7.7-1 6.7-1.5 12.8-5.5 16.4-10.8.7-1 1.2-2 1.6-3 .2 0 .5-.2.7-.2.2.1.5.3.7.4 1.8.9 3.7 1.4 5.6 1.4s5-.8 7.1-2.3c.3.2.7.4 1 .5-1.7 3.1-3.7 6.4-6.1 9.8-1.4.5-13.1 4.5-18 5.1-1.1.1-1.9 1.1-1.7 2.2.1 1 1 1.7 2 1.7h.3c3.2-.4 8.9-2.1 13.2-3.5-4.2 5.2-9.4 10.7-15.7 16.5-.8.7-.9 1.8-.3 2.6 0 0 0 .1.1.2.4.4.9.7 1.5.7s1-.2 1.3-.5c.6-.5 1.1-1 1.6-1.5.6-.6 1.3-1.2 1.9-1.8 1.6-1.6 3.2-3.1 4.7-4.7 0 .8-.2 1.6-.2 2.4 0 .8 0 1.5-.1 2.3v.2c0 1.3 0 2.6.1 3.9v1.1c0 .3.1.6.3.8.4.6 1 .9 1.7.9h.2c.8 0 1.3-.6 1.6-1.2.1-.3.2-.6.1-1v-6.9c0-.9.1-1.7.2-2.4.4-2.8.9-4.9 1.1-5.8 6-7 10.5-13.5 13.7-19.6h.1c2.7 2.4 4.2 6.7 4.2 11.9v1.9c0 .8-.2 1.7-.3 2.6-.2.9-.4 1.9-.6 2.8-.4 1.4-.8 2.9-1.4 4.4-.7 1.7-1.5 3.4-2.4 5.1-.2.4-.5.8-.7 1.1-.5.8-1 1.5-1.5 2.3-.5.8-1.1 1.5-1.8 2.2Zm-23.2-48.6c1.7.8 3.1 1.8 4.1 2.8v.5c-6 3.1-14 5.8-24.6 7.5-1.1.2-1.8 1.2-1.7 2.3.2 1 1 1.7 2 1.7h.3c10.6-1.7 18.8-4.3 25.1-7.5.3.5.5 1.1.9 1.6 0 .2 0 .4-.1.6-.2.9-.6 1.7-1.1 2.6-.2.4-.5.8-.8 1.3-.6.9-1.3 1.7-2 2.5-1.6 1.7-3.6 3.1-5.7 4.3-1.5.8-3 1.4-4.6 1.9-1 .3-2 .6-3.1.7-.3 0-.6.1-.9.1-12.5 1.5-22.7-3-26.6-5.1 2.4-3.6 9.2-12.2 20.7-17.7 6.7-3.2 13.8-2.2 18.1-.2Zm6.2-16.7c1-.3 1.5-1.4 1.3-2.4-.9-3.4.5-6.9 3.5-8.7 1.3-.8 2.7-1.2 4.2-1.2s3.8.7 5.2 1.9c.8.7 2 .7 2.7 0 2.5-2.5 6.2-3 9.3-1.4 3.1 1.6 4.7 5 4.1 8.4-.2 1 .4 2 1.5 2.3.4.1.9.3 1.3.5 1.2.5 2.2 1.4 3 2.4 1 1.3 1.6 2.9 1.7 4.5v1.2c-.3 3-2.4 5.7-5.4 6.7-1 .3-1.6 1.4-1.3 2.4.8 3.3-.6 6.8-3.5 8.6-1.1.7-2.4 1.1-3.6 1.2H608c-.8-.1-1.5-.4-2.2-.7-.5-.2-.9-.5-1.3-.8 0 0-.2-.1-.3-.2-.6-.5-1.3-.6-2-.3-.3 0-.5.2-.7.4-.5.5-1.1.9-1.7 1.2-2.1 1.2-4.7 1.3-6.9.4-.2 0-.5-.2-.7-.3-.6-.3-1.2-.8-1.7-1.2l-.4-.4c-.6-.7-1.1-1.5-1.5-2.3-.5-1.2-.7-2.5-.6-3.9v-.7c.2-1-.4-2-1.5-2.3-3.4-.9-5.8-3.9-5.9-7.4-.1-3.5 2-6.6 5.3-7.8Zm47.7 2.5c4.2-2.3 11.1-3.9 18.1-1.2 3.7 1.4 6.9 3.2 9.7 5 .6.4 1.2.8 1.7 1.2.6.4 1.1.8 1.6 1.2 4.4 3.4 7.4 6.8 8.9 8.7-3.7 2.4-13.5 7.7-26.2 7-.4 0-.9 0-1.3-.1-.9 0-1.8-.2-2.7-.4-.8-.2-1.6-.4-2.4-.7-4.3-1.4-8.2-3.9-10.7-7.1-1.7-2.2-2.6-4.5-2.6-6.4 5.9 2.6 13.4 4.6 22.9 5.7.9.1 1.8.2 2.8.3h1.1c1 0 1.9-.8 2-1.8V43c-.2-.7-.8-1.2-1.5-1.3h-.2c-10.9-.9-19.2-3-25.4-5.8 1-1.3 2.4-2.5 4.2-3.5Zm65.8-14.8c-.1.6-.2 1.2-.2 1.8-5.2 1.4-9.2 5.7-10.1 11.2-.6 3.4.1 6.7 1.8 9.4-4 3.1-8.5 6.4-13.5 9.7.2-.2.4-.3.4-.3.8-.6 1-1.8.4-2.7-.2-.3-3.6-5.4-10.2-10.7 14.5-11.6 24.6-16.7 31.5-18.5Zm36.1-2.2c.8.7 1.5 1.4 2 2.2.5.8.9 1.7 1.2 2.6.2.8.4 1.5.4 2.3 0 1.4-.2 2.9-.7 4.3-.4 1 0 2.1 1 2.5 3.9 1.9 6.1 6.3 5.4 10.6-.6 3.6-3.1 6.5-6.5 7.7-.6.2-1.3.4-1.9.5h-.2c-.7 0-1.2.5-1.5 1.1-.1.3-.2.6-.2 1 0 1.3-.2 2.5-.6 3.7-.2.7-.6 1.4-1 2-.4.6-.8 1.1-1.3 1.6-1 1.1-2.3 1.9-3.7 2.4-1.5.6-3.1.7-4.6.6-.7 0-1.4-.2-2-.4-.6-.2-1.3-.5-1.8-.8-1.1-.6-2-1.4-2.8-2.4-.4-.5-1-.7-1.6-.7s-.8.1-1.1.3c-.3.2-.7.4-1 .6-.6.3-1.3.5-1.9.7-.7.2-1.4.3-2.2.3-.8 0-1.6 0-2.4-.2-1.5-.3-2.9-1-4.1-1.9 0 0-.1 0-.2-.1-.5-.4-.9-.8-1.3-1.3s-.8-1.1-1.1-1.7c-1.4-2.6-1.6-5.7-.5-8.5.4-1 0-2.1-1-2.5-.7-.3-1.3-.7-1.9-1.2-.3-.2-.6-.5-.8-.8-.5-.5-1-1.1-1.4-1.7l-.3-.6c-.3-.6-.5-1.1-.7-1.7-.4-1.4-.6-3-.3-4.5.6-3.3 2.7-6 5.6-7.4.7-.3 1.3-.5 2.1-.7.2 0 .5 0 .7-.1.6 0 1-.4 1.3-.8.3-.4.4-.8.4-1.3v-.8c0-1.1.3-2.2.6-3.2.3-.7.6-1.4 1.1-2 .5-.7 1.1-1.4 1.8-2 .9-.7 1.9-1.4 3-1.8 1.3-.5 2.7-.7 4.1-.6 1.5 0 2.9.5 4.2 1.2 1.2.7 2.3 1.5 3.1 2.7l.2.2c.4.4.9.6 1.5.6.4 0 .7-.1 1.1-.3.6-.4 1.2-.7 1.8-.9 3.3-1.3 7.1-.7 9.9 1.6Zm-54.3 57.2c.4-.9.8-1.8 1.2-2.8.4-1 .9-2 1.3-3s.9-2.1 1.3-3.1c.1-.3.2-.5.3-.8 3-7.4 5.8-13.8 8.5-19.3.4.3.8.7 1.3.9-1 3.8-.4 7.7 1.6 10.9.4.6.8 1.1 1.2 1.6.4.5.9 1 1.4 1.4.1.1.3.2.4.4 1.5 1.2 3.1 2.1 4.9 2.6-5.6 10.1-12.1 19.7-19.1 28.7.4-1.5.6-3 .6-4.7 0-4.9-1.9-9.5-4.9-12.9Zm-53.9-24.1c2.6 3.2 6.1 5.8 10.2 7.6-7.9 6.1-15.2 11.4-21.7 15.8 0-4.8-1.3-9-3.6-12 1.2-.3 2.3-.8 3.3-1.4 3.9-2.4 6-6.8 5.6-11.2 1.5-.7 2.8-1.8 3.8-3 .6 1.4 1.4 2.9 2.5 4.3ZM615.3 77c7.8-5.2 16.8-11.6 26.6-19.4 1.7.4 3.5.7 5.2.8h2.3c12.5 0 22-5 26-7.6-16.3 11-37.1 22.8-61.5 31.9.6-1.9 1-3.8 1.3-5.7Zm-3.1 10.7c31.3-11.3 57.1-27.1 75.3-40.4-1.9 4.2-3.9 8.9-6 14.1l-2.4 5.7c-.6.3-1.2.6-1.8 1l-1.2.6c-2.9-1.6-6.2-2.6-9.7-2.6-9.1 0-16.7 6.3-18.9 14.7-13.2 4.5-25.8 7.3-36.5 9.2.4-.7.7-1.5 1.1-2.2Zm38.9-4c0-.8.2-1.5.4-2.3.2-.9.5-1.7.9-2.5 2.5-5.3 7.8-9 14-9s3.5.3 5.1.9c.8.3 1.6.6 2.4 1.1.7.4 1.3.8 1.9 1.3.1 0 .3.2.4.3.5.4 1.1.9 1.5 1.5.5.6 1 1.1 1.4 1.8 1.7 2.5 2.7 5.5 2.7 8.8 0 8.3-6.6 15.1-14.9 15.5h-2.3c-.7 0-1.4-.2-2.1-.4-6.7-1.7-11.7-7.8-11.7-15s0-1.2.1-1.8Zm15.4 21.3c2.9 0 5.6-.7 8.1-1.8-8.2 9.3-16.7 17.8-24.9 25.4 4.5-6.2 9.7-14.1 15.2-23.7h1.6ZM766.6 8.8c5.7.1 16.5 1.5 29.5 8.7 1.4.8 2.7 1.6 4.1 2.4-2.3 3.6-3.8 8.3-4.1 13.6-4.8-3.4-9.8-5-14.5-4.5-.6 0-1.2.2-1.8.3-3.8-8.8-8.3-15.5-13.2-20.6ZM919.5 15c-7.4 0-13.5 6.1-13.5 13.5S912.1 42 919.5 42 933 35.9 933 28.5 926.9 15 919.5 15Zm0 23c-5.2 0-9.5-4.3-9.5-9.5s4.3-9.5 9.5-9.5 9.5 4.3 9.5 9.5-4.3 9.5-9.5 9.5Z"/><path d="M608.5 108c-5.8 0-10.5 4.7-10.5 10.5s4.7 10.5 10.5 10.5 10.5-4.7 10.5-10.5-4.7-10.5-10.5-10.5Zm0 17c-3.6 0-6.5-2.9-6.5-6.5s2.9-6.5 6.5-6.5 6.5 2.9 6.5 6.5-2.9 6.5-6.5 6.5ZM507.3 95.3c-1.8-3.6-5.4-5.9-9.4-5.9-1.5-3.7-5-6.2-9.1-6.5-4-.3-7.8 1.8-9.8 5.2-3.9-.5-7.8 1.2-10.1 4.6-2.3 3.4-2.4 7.7-.4 11.1-2.4 3.1-2.8 7.4-1.1 11 1.8 3.6 5.4 5.9 9.4 5.9 1.6 3.6 5 6 9 6.3h.7c3.7 0 7.1-1.9 9-5 4 .6 8-1.2 10.3-4.6 2.3-3.4 2.4-7.7.4-11.1 2.4-3.1 2.8-7.4 1.1-11Zm-4.9 9.4c-.8.7-.8 1.9-.2 2.7 1.8 2.2 2 5.4.4 7.8-1.6 2.4-4.7 3.5-7.4 2.6-1-.3-2.1.2-2.5 1.1-1.1 2.6-3.7 4.2-6.5 4-2.8-.2-5.2-2.2-5.9-4.9-.2-.9-1-1.5-1.9-1.5h-.3c-2.8.4-5.6-1-6.9-3.6-1.3-2.6-.7-5.7 1.4-7.7.8-.7.8-1.9.2-2.7-1.8-2.2-2-5.4-.4-7.8 1.6-2.4 4.5-3.5 7.3-2.6 1 .3 2.1-.2 2.4-1.2 1-2.7 3.7-4.4 6.6-4.2 2.9.2 5.3 2.3 6 5.1.2 1 1.2 1.7 2.3 1.5 2.9-.4 5.6 1 6.9 3.6 1.3 2.6.7 5.7-1.4 7.7Z"/><path d="M492.2 98.5c-1.7-1.3-3.9-1.8-6-1.4-2.1.3-4 1.5-5.2 3.2-2.6 3.6-1.8 8.6 1.8 11.2 1.4 1 3 1.5 4.7 1.5s.9 0 1.3-.1c2.1-.3 4-1.5 5.2-3.2 2.6-3.6 1.8-8.6-1.8-11.2Zm-1.5 8.9c-1.3 1.8-3.8 2.2-5.6.9-.9-.6-1.4-1.6-1.6-2.6-.2-1.1 0-2.1.7-3 .8-1.1 2-1.7 3.3-1.7s1.6.2 2.4.8c.9.6 1.4 1.6 1.6 2.6.2 1.1 0 2.1-.7 3Z"/></svg>