<svg xmlns="http://www.w3.org/2000/svg" viewBox="0 0 335.9 171.4">
  <path d="M271.5,45.9c.7.4,1.5.2,1.9-.5s.2-1.5-.5-1.9c-.2-.1-.5-.2-.7-.2s-.2,0-.3,0c-.4,0-.7.3-.9.6-.4.7-.2,1.5.5,1.9Z" fill="none" stroke-width="0"/>
  <path d="M185.9,29.1c.4-.1.7-.4,1-.7.2-.4.3-.8.2-1.2-.2-.7-.8-1.2-1.5-1.2s-.3,0-.4,0c-.4.1-.7.4-1,.7-.2.4-.3.8-.2,1.2.1.4.4.7.7,1,.4.2.8.3,1.2.2Z" fill="none" stroke-width="0"/>
  <path d="M209.2,33.2c.3.2.8.3,1.2.2.4,0,.8-.3,1-.7.2-.3.3-.8.2-1.2,0-.4-.3-.8-.7-1-.3-.2-.6-.3-.9-.3s-.2,0-.3,0c-.4,0-.8.3-1,.7s-.3.8-.2,1.2.3.8.7,1Z" fill="none" stroke-width="0"/>
  <path d="M285.8,65.7c.4,0,.7-.3.9-.6s.3-.7.2-1c0-.4-.3-.7-.6-.9-.2-.2-.5-.3-.8-.3s-.2,0-.2,0h0c-.4,0-.7.3-.9.6-.2.3-.3.7-.2,1,.1.8.9,1.3,1.6,1.1Z" fill="none" stroke-width="0"/>
  <path d="M198.3,28.9c.9.1,1.7-.4,1.8-1.3.1-.9-.4-1.7-1.3-1.8-.9-.1-1.7.4-1.8,1.3-.1.9.4,1.7,1.3,1.8Z" fill="none" stroke-width="0"/>
  <path d="M280.7,54.8c.4,0,.7,0,1-.2.3-.2.5-.5.6-.9,0-.4,0-.7-.2-1-.2-.3-.5-.5-.9-.6,0,0-.2,0-.3,0-.3,0-.6,0-.8.2-.3.2-.5.5-.6.9,0,.4,0,.7.2,1,.2.3.5.5.9.6Z" fill="none" stroke-width="0"/>
  <path d="M97.4,10.3c-.3-.4-.8-.6-1.2-.6s-.6.1-.9.3c-.3.2-.5.6-.6,1,0,.4,0,.8.3,1.1.2.3.6.5,1,.6.4,0,.8,0,1.1-.3.7-.5.8-1.5.3-2.1Z" fill="none" stroke-width="0"/>
  <path d="M88.8,19.1c-.2-.1-.5-.2-.7-.2s-.3,0-.4,0c-.4.1-.7.4-.9.7-.2.4-.2.8-.1,1.2.1.4.4.7.7.9.7.4,1.7.1,2.1-.6.2-.4.2-.8.1-1.2-.1-.4-.4-.7-.7-.9Z" fill="none" stroke-width="0"/>
  <path d="M108,7c.8-.2,1.3-1,1.1-1.8,0-.4-.3-.7-.7-.9-.3-.2-.8-.3-1.1-.2s-.7.3-1,.7c-.2.3-.3.8-.2,1.1.2.8,1,1.3,1.8,1.1Z" fill="none" stroke-width="0"/>
  <g>
    <path d="M237.5,78.6c.2.4.4.9.7,1.3.4.7.9,1.5,1.3,2.2,0,0,0,0,0,0,.3.4.6.8.9,1.2,7.6,9.9,20.3,12.4,30.3,5.7,0,0,0,0,0,0l12-9.5-9.9-4.4c-.7-.3-1.2-1-1.2-1.7l-.2-4.7-.2-4v-2.2c0,0-.2-1.9-.2-1.9l-2.5-1.1-4.4-1.9-3.9-1.7-1-.4c-.7-.3-1.2-1-1.2-1.7l-.5-10.8-13.2,7.8s0,0,0,0c-9.1,6.4-11.7,17.9-6.9,28Z" fill="none" stroke-width="0"/>
    <path d="M280.7,54.8c.4,0,.7,0,1-.2.3-.2.5-.5.6-.9,0-.4,0-.7-.2-1-.2-.3-.5-.5-.9-.6,0,0-.2,0-.3,0-.3,0-.6,0-.8.2-.3.2-.5.5-.6.9,0,.4,0,.7.2,1,.2.3.5.5.9.6Z" fill="none" stroke-width="0"/>
    <path d="M271.5,45.9c.7.4,1.5.2,1.9-.5s.2-1.5-.5-1.9c-.2-.1-.5-.2-.7-.2s-.2,0-.3,0c-.4,0-.7.3-.9.6-.4.7-.2,1.5.5,1.9Z" fill="none" stroke-width="0"/>
    <path d="M185.9,29.1c.4-.1.7-.4,1-.7.2-.4.3-.8.2-1.2-.2-.7-.8-1.2-1.5-1.2s-.3,0-.4,0c-.4.1-.7.4-1,.7-.2.4-.3.8-.2,1.2.1.4.4.7.7,1,.4.2.8.3,1.2.2Z" fill="none" stroke-width="0"/>
    <path d="M198.3,28.9c.9.1,1.7-.4,1.8-1.3.1-.9-.4-1.7-1.3-1.8-.9-.1-1.7.4-1.8,1.3-.1.9.4,1.7,1.3,1.8Z" fill="none" stroke-width="0"/>
    <path d="M190.2,79.9c.3,0,.6,0,.9.1,1.1.1,2.2.2,3.2.2,11.7,0,21.4-7.4,23.5-18.8,0,0,0,0,0,0l1.7-16.2-10.7,4.3c-.7.3-1.5.1-2.1-.4l-3.8-3.4-3-2.7-1.9-1.7-1.4-1.3-2.6,1-4.9,2-3.9,1.6-1.2.5c-.7.3-1.5.1-2.1-.4l-8.6-7.7-3.9,15.8s0,0,0,0c-2,12.1,5.5,23,17.7,26.3.8.2,1.7.4,2.6.6.2,0,.4,0,.5,0Z" fill="none" stroke-width="0"/>
    <path d="M285.8,65.7c.4,0,.7-.3.9-.6s.3-.7.2-1c0-.4-.3-.7-.6-.9-.2-.2-.5-.3-.8-.3s-.2,0-.2,0h0c-.4,0-.7.3-.9.6-.2.3-.3.7-.2,1,.1.8.9,1.3,1.6,1.1Z" fill="none" stroke-width="0"/>
    <circle cx="317.1" cy="66.2" r="4.7" fill="none" stroke-width="0"/>
    <circle cx="43.2" cy="54.7" r="4.7" fill="none" stroke-width="0"/>
    <path d="M72.9,88.2c5.2,0,9.5-4.3,9.5-9.5s-4.3-9.5-9.5-9.5-9.5,4.3-9.5,9.5,4.3,9.5,9.5,9.5Z" fill="none" stroke-width="0"/>
    <path d="M209.2,33.2c.3.2.8.3,1.2.2.4,0,.8-.3,1-.7.2-.3.3-.8.2-1.2,0-.4-.3-.8-.7-1-.3-.2-.6-.3-.9-.3s-.2,0-.3,0c-.4,0-.8.3-1,.7s-.3.8-.2,1.2.3.8.7,1Z" fill="none" stroke-width="0"/>
    <path d="M168.4,163.8c.3-.3.8-.8,1.4-1.3.5-.4,1-.9,1.6-1.4.5-.4,1-.9,1.6-1.4.6-.5,1.2-1,1.8-1.5-5-4-11.8-8.8-20.2-13.8-1.6-.9-3.2-1.9-4.9-2.8-1.3-.7-2.7-1.5-4-2.2-10.4-5.6-22.7-11.1-36.9-15.7-31.1-10.1-64.4-13.5-85.4-14.7,15.2,4.6,38.7,13.8,71.5,32.4,27.7,15.6,55.7,20.8,73.4,22.4Z" fill="none" stroke-width="0"/>
    <path d="M168.7,148.7c3.3,2.3,6.1,4.4,8.6,6.4.2-4.4.5-8.6.8-12.6-.8-2.8-1.6-5.5-2.4-8.1-3.3-5.7-7.5-11.6-12.9-17.3-14.4-15.2-34-25.5-46.8-31.2,7.3,7.3,17.4,20.2,28.2,42.6,1.3,2.8,2.8,5.4,4.4,7.8,8.2,4.4,14.9,8.7,20.2,12.4Z" fill="none" stroke-width="0"/>
    <path d="M108,7c.8-.2,1.3-1,1.1-1.8,0-.4-.3-.7-.7-.9-.3-.2-.8-.3-1.1-.2s-.7.3-1,.7c-.2.3-.3.8-.2,1.1.2.8,1,1.3,1.8,1.1Z" fill="none" stroke-width="0"/>
    <path d="M239.4,131.3c-23,5.8-40.4,15.2-51,22.1,0,0-.1,0-.2.1-.5.4-1.1.7-1.6,1.1-.2.2-.5.3-.7.5-.4.2-.7.5-1,.7-.8.5-1.5,1-2.2,1.5,0,0-.2.1-.2.2-.4.3-.7.5-1.1.8,0,0,0,0-.1,0-.5.4-1,.8-1.5,1.1-.6.4-1.1.9-1.6,1.3,0,0-.1,0-.2.1-.3.2-.5.4-.8.6-.1,0-.2.2-.3.3-.6.5-1.2,1-1.7,1.4-.4.3-.8.7-1.1,1,0,0-.2.2-.3.3,1,.1,2.1.2,3.4.3,0,0,.2,0,.2,0,.3,0,.6,0,.9,0,.9,0,1.8.1,2.8.2,0,0,.2,0,.2,0,.7,0,1.5,0,2.3,0,.3,0,.7,0,1,0,.5,0,1,0,1.5,0,.3,0,.6,0,1,0,.6,0,1.1,0,1.7,0,0,0,.1,0,.2,0,0,0,.1,0,.2,0,.7,0,1.3,0,2,0,15.6-.4,37.8-3.5,59.9-14.9,7-3.6,13.6-6.7,19.6-9.5,1.2-3.5,4.4-5.9,8.2-5.9s2.6.3,3.7.8c13.5-5.5,24.3-8.7,32.3-10.5-18.5-.9-47.9-.7-75.5,6.2Z" fill="none" stroke-width="0"/>
    <circle cx="240.8" cy="111.2" r="8.2" fill="none" stroke-width="0"/>
    <path d="M278.8,138.8c-1.7,0-3.2.9-4,2.3-.4.7-.7,1.5-.7,2.4s0,0,0,0c0,2.6,2.1,4.6,4.7,4.6s4.7-2.1,4.7-4.7-.5-2.5-1.4-3.3c-.6-.6-1.4-1-2.3-1.2-.3,0-.7-.1-1-.1Z" fill="none" stroke-width="0"/>
    <path d="M88.8,19.1c-.2-.1-.5-.2-.7-.2s-.3,0-.4,0c-.4.1-.7.4-.9.7-.2.4-.2.8-.1,1.2.1.4.4.7.7.9.7.4,1.7.1,2.1-.6.2-.4.2-.8.1-1.2-.1-.4-.4-.7-.7-.9Z" fill="none" stroke-width="0"/>
    <path d="M126.4,54.1c.3-.2.5-.4.8-.5.2-.1.3-.2.5-.3.2-.2.4-.3.6-.5.5-.4.9-.8,1.4-1.2,9.1-8.4,10.8-21.3,3.6-31,0,0,0,0,0,0l-10.5-12-4,10.6c-.3.7-.9,1.2-1.7,1.3h-1.3c0,.1-4.2.5-4.2.5l-5.2.5-2.8.3-.7,1.8-.9,2.3-1.4,3.8-1.8,4.7c-.3.7-.9,1.2-1.7,1.3l-11.3,1.1,8.8,13.3s0,0,0,0c7.7,9.8,21.1,11.5,31.8,4.2Z" fill="none" stroke-width="0"/>
    <path d="M97.4,10.3c-.3-.4-.8-.6-1.2-.6s-.6.1-.9.3c-.3.2-.5.6-.6,1,0,.4,0,.8.3,1.1.2.3.6.5,1,.6.4,0,.8,0,1.1-.3.7-.5.8-1.5.3-2.1Z" fill="none" stroke-width="0"/>
    <path d="M334.2,122.7c-.5,0-50.4-6.6-95.8,4.8-22.3,5.6-39.5,14.4-51.4,22-.4-1.2-.9-2.5-1.4-3.8,8-26.4,21.7-42.2,33-51.2,6.2-5,12.2-8.3,17.1-10.6.2.2.3.5.5.7,5.5,8.1,13.9,12.4,22.4,12.4,4.8,0,9.7-1.4,14.1-4.3,0,0,.2-.1.3-.2l14.8-11.6c.6-.4.8-1.1.7-1.8,0-.7-.5-1.3-1.2-1.6l-11.8-5.2-.2-4,5.7-1c1,1.6,2.7,2.6,4.6,2.6s.6,0,.9,0c1.4-.3,2.7-1,3.5-2.2.8-1.2,1.1-2.6.9-4-.3-1.4-1-2.7-2.2-3.5-1.2-.8-2.6-1.1-4-.9-1.4.3-2.7,1-3.5,2.2-.4.6-.7,1.3-.9,2l-5.1.9-.2-4.2,3-2c.6.4,1.3.7,2,.8.3,0,.7,0,1,0,1.1,0,2.1-.3,3-.9,1.2-.8,2-2,2.3-3.5.3-1.4,0-2.9-.8-4-.8-1.2-2-2-3.5-2.3-1.4-.3-2.9,0-4,.8-1.2.8-2,2-2.3,3.5-.1.7-.1,1.5,0,2.2l-3.3,2.3-5.5-2.4,4.2-4.6c.4,0,.7.1,1.1.1,1.8,0,3.6-.9,4.6-2.6.7-1.2,1-2.7.6-4.1-.3-1.4-1.2-2.6-2.4-3.3-1.2-.8-2.7-1-4.1-.6-1.4.3-2.6,1.2-3.3,2.4-1.1,1.9-1,4.1.2,5.8l-4.7,5.1-1.1-.5-.5-12.9c0-.7-.4-1.3-1-1.7-.6-.3-1.4-.3-2,0l-16.2,9.6c0,0-.2.1-.3.2-10.6,7.5-13.7,21-8.1,32.8-5.1,2.4-11.2,5.8-17.5,10.9-11.1,8.8-24.6,24-33.1,48.9-.2-.5-.5-1-.7-1.6,2.6-28.1,7.6-45.9,10.5-54.3.5,0,1.1,0,1.6,0,13.4,0,24.7-8.7,27.2-21.9,0-.1,0-.2,0-.3l2.1-19.7c0-.7-.2-1.4-.8-1.8-.6-.4-1.3-.5-2-.3l-12.7,5.1-3.3-2.9,3.5-5.1c.4,0,.8.2,1.3.2s.7,0,1,0c1.5-.3,2.7-1.1,3.6-2.3s1.1-2.7.9-4.2c-.3-1.5-1.1-2.7-2.3-3.6-1.2-.8-2.7-1.1-4.2-.9-1.5.3-2.7,1.1-3.6,2.3s-1.1,2.7-.9,4.2c.1.8.5,1.5.9,2.1l-3.2,4.7-3.4-3,.7-3.9c2.2-.4,4-2.2,4.4-4.5.5-3-1.5-5.9-4.5-6.4-3-.5-5.9,1.5-6.4,4.5h0c-.4,2.3.7,4.6,2.6,5.7l-.8,4.3-6,2.4-.4-6.7c1.9-1.3,2.9-3.7,2.3-6-.8-3-3.8-4.8-6.8-4-3,.8-4.8,3.8-4,6.8.4,1.4,1.3,2.7,2.6,3.4.6.4,1.3.6,1.9.7l.4,7.4-1.3.5-10.2-9.1c-.5-.5-1.3-.6-1.9-.4-.7.2-1.2.8-1.4,1.4l-4.7,19.2c0,.1,0,.2,0,.3-2.3,15,7.7,28.4,23.4,31.3-2.8,8.3-7.1,23.9-9.8,48.2-13.7-44.2-23.6-57-47-77.1,10.9-9.7,12.9-25,4.5-36.5,0-.1-.1-.2-.2-.3l-12.8-14.7c-.5-.5-1.2-.8-1.9-.7-.7.1-1.3.6-1.5,1.3l-4.8,12.6h-1.4c0,.1-3-6.5-3-6.5,1.7-1.3,2.6-3.5,2.1-5.7-.3-1.4-1.2-2.7-2.5-3.4-1.2-.8-2.7-1-4.2-.7-1.4.3-2.7,1.2-3.4,2.5-.8,1.2-1,2.7-.7,4.2h0c.5,2.3,2.5,4,4.8,4.2l2.7,6-6.3.6-2.6-3.4c1.1-1.9,1.1-4.4-.3-6.2-1.8-2.4-5.3-2.9-7.7-1.1-2.4,1.8-2.9,5.3-1.1,7.7,1.1,1.4,2.7,2.2,4.4,2.2s1,0,1.5-.2l2.3,3.1-1.6,4.2-4.9-2.6c0-.7,0-1.5-.2-2.3-.4-1.4-1.4-2.6-2.7-3.3s-2.8-.9-4.2-.4c-1.4.4-2.6,1.4-3.3,2.7s-.9,2.8-.4,4.2,1.4,2.6,2.7,3.3c.8.5,1.7.7,2.6.7,1.3,0,2.6-.5,3.6-1.3l5.4,2.9-1.5,4-13.4,1.2c-.7,0-1.3.5-1.6,1.1-.3.6-.3,1.4.1,2l10.7,16.3c0,0,.1.2.2.3,5.3,6.7,12.9,10.2,20.8,10.2s11.4-1.8,16.5-5.4c21.2,18.2,31,29.6,42.5,63.6-1.7-2.2-3.6-4.4-5.7-6.6-23.8-25.1-60-36.9-61.6-37.4-1-.3-2.1.2-2.5,1.2-.4,1,.1,2.1,1.1,2.5.2,0,17.7,7.8,37.8,49.5.4.9.9,1.8,1.3,2.6-9.2-4.6-19.8-9.1-31.8-13C59.2,103.4,2.5,104.5,2,104.5c-1.1,0-1.9.9-2,2s.8,2,1.9,2c.3,0,29.2,1.4,91.1,36.4,28.5,16.1,57.4,21.3,75.5,22.9,0,0,.1,0,.2,0,.1,0,5.3.9,13.8,1.2,3.7,1.5,6.1,2.2,6.5,2.3.2,0,.3,0,.5,0,.5,0,.9-.2,1.3-.5.5-.4.8-1,.7-1.7,0,0,0-.1,0-.2,16.1-.5,38.7-3.7,61.3-15.3,6.2-3.2,12.1-6,17.5-8.5.8,4,4.3,6.9,8.5,6.9s8.7-3.9,8.7-8.7-.6-3.5-1.5-4.9c32.3-12.7,47.6-11.9,47.7-11.9,1.1,0,2-.7,2.1-1.8.1-1.1-.7-2-1.7-2.2ZM284.5,63.5c.2-.3.5-.5.9-.6h0c0,0,.2,0,.2,0,.3,0,.6,0,.8.3.3.2.5.5.6.9,0,.4,0,.7-.2,1s-.5.5-.9.6c-.8.1-1.5-.4-1.6-1.1,0-.4,0-.7.2-1ZM280.2,52.3c.2-.2.5-.2.8-.2s.2,0,.3,0c.4,0,.7.3.9.6.2.3.3.7.2,1,0,.4-.3.7-.6.9-.3.2-.7.3-1,.2-.4,0-.7-.3-.9-.6-.2-.3-.3-.7-.2-1,0-.4.3-.7.6-.9ZM271,44c.2-.3.5-.5.9-.6.1,0,.2,0,.3,0,.3,0,.5,0,.7.2.7.4.9,1.3.5,1.9s-1.3.9-1.9.5c-.7-.4-.9-1.3-.5-1.9ZM244.3,50.7s0,0,0,0l13.2-7.8.5,10.8c0,.8.5,1.4,1.2,1.7l1,.4,3.9,1.7,4.4,1.9,2.5,1.1v1.9c0,0,.2,2.2.2,2.2l.2,4,.2,4.7c0,.8.5,1.4,1.2,1.7l9.9,4.4-12,9.5s0,0,0,0c-9.9,6.6-22.7,4.1-30.3-5.7-.3-.4-.6-.8-.9-1.2,0,0,0,0,0,0-.5-.7-.9-1.5-1.3-2.2-.2-.4-.5-.9-.7-1.3-4.8-10.1-2.2-21.6,6.9-28ZM208.8,31c.2-.3.6-.6,1-.7,0,0,.2,0,.3,0,.3,0,.6,0,.9.3.3.2.6.6.7,1,0,.4,0,.8-.2,1.2-.2.3-.6.6-1,.7-.4,0-.8,0-1.2-.2-.3-.2-.6-.6-.7-1s0-.8.2-1.2ZM184,27.9c-.1-.4,0-.8.2-1.2.2-.4.6-.6,1-.7.1,0,.3,0,.4,0,.7,0,1.3.5,1.5,1.2.1.4,0,.8-.2,1.2-.2.4-.6.6-1,.7-.4.1-.8,0-1.2-.2-.4-.2-.6-.6-.7-1ZM169.4,52.9s0,0,0,0l3.9-15.8,8.6,7.7c.6.5,1.4.7,2.1.4l1.2-.5,3.9-1.6,4.9-2,2.6-1,1.4,1.3,1.9,1.7,3,2.7,3.8,3.4c.6.5,1.4.7,2.1.4l10.7-4.3-1.7,16.2s0,0,0,0c-2.1,11.4-11.8,18.9-23.5,18.8-1.1,0-2.1,0-3.2-.2-.3,0-.6,0-.9-.1-.2,0-.4,0-.5,0-.9-.2-1.7-.3-2.6-.6-12.2-3.3-19.7-14.2-17.7-26.3ZM197,27.1c.2-.9,1-1.4,1.8-1.3.9.2,1.4,1,1.3,1.8-.1.9-1,1.4-1.8,1.3-.9-.1-1.4-1-1.3-1.8ZM106.4,4.7c.2-.3.6-.6,1-.7s.8,0,1.1.2c.3.2.6.6.7.9.2.8-.3,1.6-1.1,1.8-.8.2-1.6-.3-1.8-1.1,0-.4,0-.8.2-1.1ZM89.4,21.2c-.4.7-1.3,1-2.1.6-.4-.2-.6-.5-.7-.9-.1-.4,0-.8.1-1.2.2-.4.5-.6.9-.7.1,0,.3,0,.4,0,.2,0,.5,0,.7.2.4.2.6.5.7.9.1.4,0,.8-.1,1.2ZM94.6,49.8l-8.8-13.3,11.3-1.1c.8,0,1.4-.6,1.7-1.3l1.8-4.7,1.4-3.8.9-2.3.7-1.8,2.8-.3,5.2-.5,4.2-.4h1.3c.8-.2,1.4-.7,1.7-1.4l4-10.6,10.5,12s0,0,0,0c7.2,9.7,5.6,22.6-3.6,31-.4.4-.9.8-1.4,1.2-.2.2-.4.3-.6.5-.2.1-.3.2-.5.3-.3.2-.5.4-.8.5-10.7,7.3-24.2,5.6-31.8-4.2,0,0,0,0,0,0ZM96,12.8c-.4,0-.8-.3-1-.6-.2-.3-.4-.7-.3-1.1,0-.4.3-.8.6-1,.3-.2.6-.3.9-.3.5,0,.9.2,1.2.6.5.7.4,1.6-.3,2.1-.3.2-.7.3-1.1.3ZM283.5,143.5c0,2.6-2.1,4.7-4.7,4.7s-4.7-2.1-4.7-4.6c0,0,0,0,0,0,0-.9.3-1.7.7-2.4.8-1.4,2.3-2.3,4-2.3s.7,0,1,.1c.9.2,1.7.6,2.3,1.2.9.9,1.4,2,1.4,3.3ZM282.6,135.6c-1.1-.5-2.4-.8-3.7-.8-3.8,0-7.1,2.5-8.2,5.9-6.1,2.7-12.6,5.9-19.6,9.5-22.2,11.4-44.3,14.5-59.9,14.9-.7,0-1.4,0-2,0,0,0-.1,0-.2,0,0,0-.1,0-.2,0-.6,0-1.1,0-1.7,0-.3,0-.6,0-1,0-.5,0-1,0-1.5,0-.3,0-.7,0-1,0-.8,0-1.5,0-2.3,0,0,0-.2,0-.2,0-1,0-1.9,0-2.8-.2-.3,0-.6,0-.9,0,0,0-.2,0-.2,0-1.3,0-2.4-.2-3.4-.3,0,0,.2-.2.3-.3.4-.3.7-.6,1.1-1,.5-.4,1.1-.9,1.7-1.4.1,0,.2-.2.3-.3.3-.2.5-.4.8-.6,0,0,.1,0,.2-.1.5-.4,1.1-.8,1.6-1.3.5-.4,1-.8,1.5-1.1,0,0,0,0,.1,0,.3-.3.7-.5,1.1-.8,0,0,.2-.1.2-.2.7-.5,1.4-1,2.2-1.5.3-.2.7-.5,1-.7.2-.2.5-.3.7-.5.5-.4,1-.7,1.6-1.1,0,0,.1,0,.2-.1,10.6-6.9,28-16.3,51-22.1,27.6-6.9,57-7.1,75.5-6.2-8.1,1.8-18.8,5-32.3,10.5ZM108.8,123.7c14.2,4.6,26.5,10.1,36.9,15.7,1.4.7,2.7,1.5,4,2.2,1.7.9,3.3,1.9,4.9,2.8,8.4,5,15.1,9.9,20.2,13.8-.7.5-1.3,1-1.8,1.5-.6.5-1.1,1-1.6,1.4-.6.5-1.1,1-1.6,1.4-.6.5-1,.9-1.4,1.3-17.8-1.6-45.8-6.8-73.4-22.4-32.8-18.6-56.3-27.8-71.5-32.4,21,1.2,54.3,4.6,85.4,14.7ZM116,85.9c12.8,5.6,32.4,16,46.8,31.2,5.4,5.7,9.6,11.6,12.9,17.3.8,2.6,1.6,5.3,2.4,8.1-.3,4-.6,8.2-.8,12.6-2.5-1.9-5.3-4.1-8.6-6.4-5.2-3.7-12-8-20.2-12.4-1.6-2.4-3.1-5-4.4-7.8-10.8-22.4-20.8-35.3-28.2-42.6Z" fill="#000" stroke-width="0"/>
    <path d="M228.6,111.2c0,6.7,5.5,12.2,12.2,12.2s12.2-5.5,12.2-12.2-5.5-12.2-12.2-12.2-12.2,5.5-12.2,12.2ZM232.6,111.2c0-4.5,3.7-8.2,8.2-8.2s8.2,3.7,8.2,8.2-3.7,8.2-8.2,8.2-8.2-3.7-8.2-8.2Z" fill="#000" stroke-width="0"/>
    <path d="M72.9,92.2c7.4,0,13.5-6.1,13.5-13.5s-6.1-13.5-13.5-13.5-13.5,6.1-13.5,13.5,6.1,13.5,13.5,13.5ZM72.9,69.2c5.2,0,9.5,4.3,9.5,9.5s-4.3,9.5-9.5,9.5-9.5-4.3-9.5-9.5,4.3-9.5,9.5-9.5Z" fill="#000" stroke-width="0"/>
    <path d="M43.2,63.4c4.8,0,8.7-3.9,8.7-8.7s-3.9-8.7-8.7-8.7-8.7,3.9-8.7,8.7,3.9,8.7,8.7,8.7ZM43.2,50c2.6,0,4.7,2.1,4.7,4.7s-2.1,4.7-4.7,4.7-4.7-2.1-4.7-4.7,2.1-4.7,4.7-4.7Z" fill="#000" stroke-width="0"/>
    <path d="M317.1,74.9c4.8,0,8.7-3.9,8.7-8.7s-3.9-8.7-8.7-8.7-8.7,3.9-8.7,8.7,3.9,8.7,8.7,8.7ZM317.1,61.5c2.6,0,4.7,2.1,4.7,4.7s-2.1,4.7-4.7,4.7-4.7-2.1-4.7-4.7,2.1-4.7,4.7-4.7Z" fill="#000" stroke-width="0"/>
  </g>
</svg>