<?xml version="1.0" standalone="no"?>
<!DOCTYPE svg PUBLIC "-//W3C//DTD SVG 20010904//EN"
 "http://www.w3.org/TR/2001/REC-SVG-20010904/DTD/svg10.dtd">
<svg version="1.0" xmlns="http://www.w3.org/2000/svg"
 width="700.000000pt" height="700.000000pt" viewBox="0 0 700.000000 700.000000"
 preserveAspectRatio="xMidYMid meet">
<metadata>
Created by potrace 1.14, written by Peter Selinger 2001-2017
</metadata>
<g transform="translate(0.000000,700.000000) scale(0.100000,-0.100000)"
fill="#000000" stroke="none">
<path d="M0 3500 l0 -3500 3500 0 3500 0 0 3500 0 3500 -3500 0 -3500 0 0
-3500z m5368 2634 c66 -33 126 -101 148 -167 47 -140 -14 -921 -112 -1441 -99
-529 -243 -982 -429 -1349 -160 -317 -386 -629 -641 -883 -268 -268 -541 -441
-855 -543 -174 -56 -240 -64 -459 -58 -164 4 -198 8 -300 35 -63 16 -158 48
-210 71 -52 23 -100 45 -107 48 -21 9 -206 -394 -324 -706 -32 -85 -71 -170
-87 -190 -139 -175 -413 -140 -503 63 -31 72 -34 127 -9 208 53 173 224 575
365 858 l83 165 -24 30 c-14 17 -47 66 -74 111 -222 364 -265 814 -125 1299
98 338 331 781 559 1065 475 591 1486 1097 2751 1375 193 43 281 45 353 9z"/>
<path d="M4890 5488 c-743 -189 -1402 -473 -1815 -783 -274 -204 -458 -432
-638 -790 -190 -376 -254 -707 -191 -989 9 -39 19 -74 23 -79 4 -4 60 71 124
167 308 459 636 856 1019 1232 228 224 267 249 383 249 92 -1 160 -31 219 -96
75 -83 96 -196 57 -298 -24 -64 -35 -77 -166 -202 -306 -290 -616 -650 -886
-1024 -107 -150 -329 -485 -329 -497 0 -13 94 -54 170 -75 49 -14 99 -18 200
-17 165 1 245 21 405 98 280 136 520 362 794 744 301 422 508 1038 615 1835
24 175 59 528 54 532 -2 1 -19 -2 -38 -7z"/>
</g>
</svg>
